<svg xmlns="http://www.w3.org/2000/svg" xmlns:xlink="http://www.w3.org/1999/xlink" width="185.111" height="185.111" viewBox="0 0 185.111 185.111">
  <defs>
    <clipPath id="clip-path">
      <rect id="Ret창ngulo_402" data-name="Ret창ngulo 402" width="24.634" height="24.634"/>
    </clipPath>
    <clipPath id="clip-path-2">
      <rect id="Ret창ngulo_403" data-name="Ret창ngulo 403" width="17.846" height="17.846"/>
    </clipPath>
  </defs>
  <g id="Grupo_982" data-name="Grupo 982" transform="translate(-1251.538 -2169.092)">
    <g id="Elipse_44_3_" transform="translate(1260.098 2177.651)">
      <circle id="Elipse_77" data-name="Elipse 77" cx="83.996" cy="83.996" r="83.996" transform="translate(0 0)" fill="none"/>
      <circle id="Elipse_78" data-name="Elipse 78" cx="83.156" cy="83.156" r="83.156" transform="translate(0.84 0.84)" fill="none" stroke="#d1d3d4" stroke-width="2"/>
    </g>
    <g id="Elipse_45_3_" transform="translate(1251.695 2169.249)">
      <circle id="Elipse_79" data-name="Elipse 79" cx="92.398" cy="92.398" r="92.398" fill="none"/>
      <circle id="Elipse_80" data-name="Elipse 80" cx="91.555" cy="91.555" r="91.555" transform="translate(0.843 0.843)" fill="none" stroke="#d1d3d4" stroke-width="2"/>
    </g>
    <g id="Grupo_964" data-name="Grupo 964" transform="translate(484 846.669)">
      <g id="Grupo_965" data-name="Grupo 965" transform="translate(802.904 1313.169)">
        <g id="Grupo_748" data-name="Grupo 748" transform="translate(2.534 49.191)">
          <g id="Grupo_690" data-name="Grupo 690">
            <g id="Grupo_688" data-name="Grupo 688">
              <path id="Caminho_2190" data-name="Caminho 2190" d="M182.36,1588.113a6.521,6.521,0,0,0-6.521,6.521L170,1643.879c0,3.6,8.758,6.521,12.36,6.521h29.351v-62.29H182.36Z" transform="translate(-170 -1588.11)" fill="#ff5749"/>
            </g>
            <g id="Grupo_689" data-name="Grupo 689" transform="translate(41.709 0.003)">
              <path id="Caminho_2191" data-name="Caminho 2191" d="M340.991,1588.12H310.58v62.29h30.408c3.6,0,11.3-2.919,11.3-6.521l-4.78-49.245A6.517,6.517,0,0,0,340.991,1588.12Z" transform="translate(-310.58 -1588.12)" fill="#ef5048"/>
            </g>
          </g>
          <g id="Grupo_691" data-name="Grupo 691" transform="translate(9.07 3.913)">
            <path id="Caminho_2192" data-name="Caminho 2192" d="M264.168,1625.934h-61.35a2.248,2.248,0,0,1-2.249-2.249v-20.136a2.247,2.247,0,0,1,2.249-2.249h61.35a2.247,2.247,0,0,1,2.249,2.249v20.136A2.249,2.249,0,0,1,264.168,1625.934Z" transform="translate(-200.57 -1601.3)" fill="#fff"/>
          </g>
          <g id="Grupo_710" data-name="Grupo 710" transform="translate(48.037 3.913)">
            <g id="Grupo_709" data-name="Grupo 709">
              <g id="Grupo_707" data-name="Grupo 707">
                <g id="Grupo_706" data-name="Grupo 706" clip-path="url(#clip-path)">
                  <g id="Grupo_693" data-name="Grupo 693" transform="translate(4.225 19.86)">
                    <circle id="Elipse_57" data-name="Elipse 57" cx="8.809" cy="8.809" r="8.809" fill="#0542cc"/>
                  </g>
                  <g id="Grupo_696" data-name="Grupo 696" transform="translate(10.408 16.362)">
                    <g id="Grupo_694" data-name="Grupo 694" transform="translate(0 2.394)">
                      <path id="Caminho_2193" data-name="Caminho 2193" d="M367.267,1665.092l-.24,1.166a1.632,1.632,0,0,0,.763,1.747,3.441,3.441,0,0,0,2.02.389,3.36,3.36,0,0,0,2.255-.769,1.017,1.017,0,0,0,.258-.875l-.359-2.225A15,15,0,0,0,367.267,1665.092Z" transform="translate(-366.992 -1664.519)" fill="#f4a690"/>
                    </g>
                    <g id="Grupo_695" data-name="Grupo 695" transform="translate(0.275)">
                      <path id="Caminho_2194" data-name="Caminho 2194" d="M371.756,1656.45l-3.267.211-.57,2.756a14.987,14.987,0,0,1,4.694-.567l-.38-2.347Z" transform="translate(-367.92 -1656.45)" fill="#d8998b"/>
                    </g>
                  </g>
                  <g id="Grupo_698" data-name="Grupo 698" transform="translate(39.937 -5.661)">
                    <g id="Grupo_697" data-name="Grupo 697">
                      <path id="Caminho_2195" data-name="Caminho 2195" d="M470.41,1592.106c2.771-1.16,3.507-2.57,4.937-6.913a3.427,3.427,0,0,0-.178-2.973c-2.317,7.263-3.519,8.381-8.649,10.218A6.151,6.151,0,0,0,470.41,1592.106Z" transform="translate(-466.52 -1582.22)" fill="#f4a690"/>
                    </g>
                  </g>
                  <g id="Grupo_701" data-name="Grupo 701" transform="translate(1089.575 -475.089)">
                    <g id="Grupo_699" data-name="Grupo 699" transform="translate(0 0)">
                      <circle id="Elipse_58" data-name="Elipse 58" cx="23.545" cy="23.545" r="23.545" fill="#ffb9a3"/>
                    </g>
                    <g id="Grupo_700" data-name="Grupo 700" transform="translate(16.253 8.797)">
                      <path id="Caminho_2196" data-name="Caminho 2196" d="M4059.13,66.79s29.345-3.163,26.637-37.14c0,0,9.966,21.43-3.857,32.4A22.9,22.9,0,0,1,4059.13,66.79Z" transform="translate(-4059.13 -29.65)" fill="#f4a690"/>
                    </g>
                  </g>
                  <g id="Grupo_704" data-name="Grupo 704" transform="translate(7.177 6.278)">
                    <g id="Grupo_702" data-name="Grupo 702">
                      <circle id="Elipse_59" data-name="Elipse 59" cx="5.679" cy="5.679" r="5.679" fill="#ffb9a3"/>
                    </g>
                    <g id="Grupo_703" data-name="Grupo 703" transform="translate(3.919 2.121)">
                      <path id="Caminho_2197" data-name="Caminho 2197" d="M369.31,1638.57s7.079-.763,6.426-8.96c0,0,2.4,5.171-.932,7.818A5.521,5.521,0,0,1,369.31,1638.57Z" transform="translate(-369.31 -1629.61)" fill="#f4a690"/>
                    </g>
                  </g>
                  <g id="Grupo_705" data-name="Grupo 705" transform="translate(6.725 4.979)">
                    <path id="Caminho_2198" data-name="Caminho 2198" d="M358.134,1621.873s6.6,7.317,10.574,3.507c3.213-3.083-5.4-9.42-11.215-6.586-4.8,2.338-2.231,7.847-2.231,7.847S357.79,1627.089,358.134,1621.873Z" transform="translate(-354.575 -1618.082)" fill="#ff5749"/>
                  </g>
                </g>
              </g>
            </g>
          </g>
          <g id="Grupo_729" data-name="Grupo 729" transform="translate(32.787 10.702)">
            <g id="Grupo_728" data-name="Grupo 728">
              <g id="Grupo_726" data-name="Grupo 726">
                <g id="Grupo_725" data-name="Grupo 725" clip-path="url(#clip-path-2)">
                  <g id="Grupo_712" data-name="Grupo 712" transform="translate(3.059 14.386)">
                    <circle id="Elipse_60" data-name="Elipse 60" cx="6.382" cy="6.382" r="6.382" fill="#0542cc"/>
                  </g>
                  <g id="Grupo_715" data-name="Grupo 715" transform="translate(7.54 11.853)">
                    <g id="Grupo_713" data-name="Grupo 713" transform="translate(0 1.737)">
                      <path id="Caminho_2199" data-name="Caminho 2199" d="M306.124,1670.4l-.175.846a1.183,1.183,0,0,0,.552,1.267,2.48,2.48,0,0,0,1.463.282,2.411,2.411,0,0,0,1.632-.558.74.74,0,0,0,.187-.635l-.261-1.611A10.774,10.774,0,0,0,306.124,1670.4Z" transform="translate(-305.924 -1669.983)" fill="#f4a690"/>
                    </g>
                    <g id="Grupo_714" data-name="Grupo 714" transform="translate(0.201)">
                      <path id="Caminho_2200" data-name="Caminho 2200" d="M309.377,1664.13l-2.365.151-.412,2a10.784,10.784,0,0,1,3.4-.409l-.276-1.7Z" transform="translate(-306.6 -1664.13)" fill="#d8998b"/>
                    </g>
                  </g>
                  <g id="Grupo_717" data-name="Grupo 717" transform="translate(28.93 -4.1)">
                    <g id="Grupo_716" data-name="Grupo 716">
                      <path id="Caminho_2201" data-name="Caminho 2201" d="M380.839,1617.522c2.006-.839,2.54-1.86,3.578-5.008a2.485,2.485,0,0,0-.131-2.154c-1.679,5.263-2.549,6.07-6.266,7.4A4.434,4.434,0,0,0,380.839,1617.522Z" transform="translate(-378.02 -1610.36)" fill="#f4a690"/>
                    </g>
                  </g>
                  <g id="Grupo_720" data-name="Grupo 720" transform="translate(789.293 -344.154)">
                    <g id="Grupo_718" data-name="Grupo 718">
                      <circle id="Elipse_61" data-name="Elipse 61" cx="17.054" cy="17.054" r="17.054" fill="#ffb9a3"/>
                    </g>
                    <g id="Grupo_719" data-name="Grupo 719" transform="translate(11.77 6.373)">
                      <path id="Caminho_2202" data-name="Caminho 2202" d="M2980.51,512.584s21.258-2.29,19.3-26.9c0,0,7.219,15.523-2.792,23.471A16.6,16.6,0,0,1,2980.51,512.584Z" transform="translate(-2980.51 -485.68)" fill="#f4a690"/>
                    </g>
                  </g>
                  <g id="Grupo_723" data-name="Grupo 723" transform="translate(5.198 4.548)">
                    <g id="Grupo_721" data-name="Grupo 721">
                      <circle id="Elipse_62" data-name="Elipse 62" cx="4.115" cy="4.115" r="4.115" fill="#ffb9a3"/>
                    </g>
                    <g id="Grupo_722" data-name="Grupo 722" transform="translate(2.839 1.537)">
                      <path id="Caminho_2203" data-name="Caminho 2203" d="M307.6,1651.182s5.13-.552,4.655-6.492c0,0,1.742,3.744-.673,5.664A4,4,0,0,1,307.6,1651.182Z" transform="translate(-307.6 -1644.69)" fill="#f4a690"/>
                    </g>
                  </g>
                  <g id="Grupo_724" data-name="Grupo 724" transform="translate(4.873 3.608)">
                    <path id="Caminho_2204" data-name="Caminho 2204" d="M299.512,1639.089s4.783,5.3,7.66,2.539c2.326-2.234-3.91-6.824-8.123-4.77-3.477,1.694-1.617,5.684-1.617,5.684S299.259,1642.865,299.512,1639.089Z" transform="translate(-296.935 -1636.342)" fill="#ff5749"/>
                  </g>
                </g>
              </g>
            </g>
          </g>
          <g id="Grupo_747" data-name="Grupo 747" transform="translate(11.242 3.913)">
            <g id="Grupo_746" data-name="Grupo 746">
              <g id="Grupo_744" data-name="Grupo 744">
                <g id="Grupo_743" data-name="Grupo 743" clip-path="url(#clip-path)">
                  <g id="Grupo_731" data-name="Grupo 731" transform="translate(4.225 19.86)">
                    <circle id="Elipse_63" data-name="Elipse 63" cx="8.809" cy="8.809" r="8.809" fill="#0542cc"/>
                  </g>
                  <g id="Grupo_734" data-name="Grupo 734" transform="translate(10.411 16.362)">
                    <g id="Grupo_732" data-name="Grupo 732" transform="translate(0 2.394)">
                      <path id="Caminho_2205" data-name="Caminho 2205" d="M243.257,1665.092l-.24,1.166a1.632,1.632,0,0,0,.762,1.747,3.441,3.441,0,0,0,2.02.389,3.36,3.36,0,0,0,2.255-.769,1.017,1.017,0,0,0,.258-.875l-.359-2.225A14.983,14.983,0,0,0,243.257,1665.092Z" transform="translate(-242.982 -1664.519)" fill="#f4a690"/>
                    </g>
                    <g id="Grupo_733" data-name="Grupo 733" transform="translate(0.275)">
                      <path id="Caminho_2206" data-name="Caminho 2206" d="M247.746,1656.45l-3.267.211-.57,2.756a14.987,14.987,0,0,1,4.694-.567l-.38-2.347Z" transform="translate(-243.91 -1656.45)" fill="#d8998b"/>
                    </g>
                  </g>
                  <g id="Grupo_737" data-name="Grupo 737" transform="translate(1089.578 -475.089)">
                    <g id="Grupo_735" data-name="Grupo 735" transform="translate(0 0)">
                      <circle id="Elipse_64" data-name="Elipse 64" cx="23.545" cy="23.545" r="23.545" fill="#ffb9a3"/>
                    </g>
                    <g id="Grupo_736" data-name="Grupo 736" transform="translate(16.25 8.797)">
                      <path id="Caminho_2207" data-name="Caminho 2207" d="M3935.11,66.79s29.346-3.163,26.637-37.14c0,0,9.966,21.43-3.857,32.4A22.894,22.894,0,0,1,3935.11,66.79Z" transform="translate(-3935.11 -29.65)" fill="#f4a690"/>
                    </g>
                  </g>
                  <g id="Grupo_740" data-name="Grupo 740" transform="translate(7.352 6.8)">
                    <g id="Grupo_738" data-name="Grupo 738">
                      <circle id="Elipse_65" data-name="Elipse 65" cx="5.507" cy="5.507" r="5.507" fill="#ffb9a3"/>
                    </g>
                    <g id="Grupo_739" data-name="Grupo 739" transform="translate(3.801 2.059)">
                      <path id="Caminho_2208" data-name="Caminho 2208" d="M245.48,1639.844s6.862-.739,6.228-8.684c0,0,2.332,5.011-.9,7.578A5.356,5.356,0,0,1,245.48,1639.844Z" transform="translate(-245.48 -1631.16)" fill="#f4a690"/>
                    </g>
                  </g>
                  <g id="Grupo_742" data-name="Grupo 742" transform="translate(1.035 3.389)">
                    <g id="Grupo_741" data-name="Grupo 741">
                      <path id="Caminho_2209" data-name="Caminho 2209" d="M222.8,1612.835a8.968,8.968,0,0,1,3.575.926,2.5,2.5,0,0,1,1.552,2.326,1.846,1.846,0,0,1-.267,1.329,1.76,1.76,0,0,1-.792.555,9.807,9.807,0,0,1-3.287.318,3.442,3.442,0,0,0-2.919,1.317c-.881,1.439.11,3.492-.706,4.969a3.124,3.124,0,0,1-2.5,1.412,5.834,5.834,0,0,1-6.055-5.183,3.664,3.664,0,0,1,.208-1.727,4.842,4.842,0,0,1,1.3-1.629c.923-.849,3.092-1.249,4.077-2.017,1.988-1.552,3.676-2.795,6.168-2.7,3.005.11,4.892,1.807,6.708,4.281a8.4,8.4,0,0,1,1.67,3.391,4.98,4.98,0,0,1-.466,3.13c-.564,1.1-1.8,2.005-2.934,1.587-1.074-.395-1.492-1.712-1.688-2.872-.32-1.89.338-3.258-1.2-3.993" transform="translate(-211.378 -1612.724)" fill="#ff5749"/>
                    </g>
                  </g>
                </g>
              </g>
            </g>
          </g>
        </g>
        <g id="Grupo_749" data-name="Grupo 749" transform="translate(6.444 93.881)">
          <path id="Caminho_2210" data-name="Caminho 2210" d="M190.333,1738.74h-.368a6.786,6.786,0,0,0-6.785,6.785v18.1a6.786,6.786,0,0,0,6.785,6.785h.368a6.786,6.786,0,0,0,6.785-6.785v-18.1A6.786,6.786,0,0,0,190.333,1738.74Z" transform="translate(-183.18 -1738.74)" fill="#1e1e1e"/>
        </g>
        <g id="Grupo_750" data-name="Grupo 750" transform="translate(67.874 93.881)">
          <path id="Caminho_2211" data-name="Caminho 2211" d="M397.383,1738.74h-.368a6.786,6.786,0,0,0-6.785,6.785v18.1a6.786,6.786,0,0,0,6.785,6.785h.368a6.786,6.786,0,0,0,6.785-6.785v-18.1A6.786,6.786,0,0,0,397.383,1738.74Z" transform="translate(-390.23 -1738.74)" fill="#1e1e1e"/>
        </g>
        <g id="Grupo_753" data-name="Grupo 753" transform="translate(0 82.296)">
          <g id="Grupo_751" data-name="Grupo 751">
            <path id="Caminho_2212" data-name="Caminho 2212" d="M165.219,1699.693a3.758,3.758,0,0,0-3.759,3.759v21.89a3.758,3.758,0,0,0,3.759,3.759H205.7V1699.69H165.219Z" transform="translate(-161.46 -1699.69)" fill="#c1c1c1"/>
          </g>
          <g id="Grupo_752" data-name="Grupo 752" transform="translate(44.242 0.003)">
            <path id="Caminho_2213" data-name="Caminho 2213" d="M351.063,1699.7H310.58v29.411h40.483a3.758,3.758,0,0,0,3.759-3.759v-21.89A3.759,3.759,0,0,0,351.063,1699.7Z" transform="translate(-310.58 -1699.7)" fill="#e9e9e9"/>
          </g>
        </g>
        <g id="Grupo_754" data-name="Grupo 754" transform="translate(65.1 92.086)">
          <circle id="Elipse_66" data-name="Elipse 66" cx="6.388" cy="6.388" r="6.388" fill="#fff"/>
        </g>
        <g id="Grupo_755" data-name="Grupo 755" transform="translate(9.749 92.086)">
          <circle id="Elipse_67" data-name="Elipse 67" cx="6.388" cy="6.388" r="6.388" fill="#fff"/>
        </g>
      </g>
      <path id="Caminho_2304" data-name="Caminho 2304" d="M22.7,49.646,40.488,70.339,48.33,57.772,70.62,22.055" transform="translate(844.205 1394.814)" fill="none" stroke="#ff5749" stroke-linecap="round" stroke-linejoin="round" stroke-width="12"/>
    </g>
  </g>
</svg>
