<svg xmlns="http://www.w3.org/2000/svg" xmlns:xlink="http://www.w3.org/1999/xlink" width="339.65" height="196" viewBox="0 0 339.65 196">
  <defs>
    <clipPath id="clip-path">
      <path id="Caminho_2048" data-name="Caminho 2048" d="M0-665.305H54.508v79.8H0Z" transform="translate(0 665.305)" fill="#d7d7d7"/>
    </clipPath>
  </defs>
  <g id="Grupo_406" data-name="Grupo 406" transform="translate(-68.412 -475.573)">
    <ellipse id="Elipse_47" data-name="Elipse 47" cx="99" cy="98" rx="99" ry="98" transform="translate(128.925 475.573)" fill="#fcfcfc"/>
    <g id="Grupo_404" data-name="Grupo 404" transform="translate(68.412 496.212)">
      <path id="Caminho_2052" data-name="Caminho 2052" d="M1216.328,372.15a6.068,6.068,0,0,1,2.9.731,9.405,9.405,0,0,1,15.282-.245,6.093,6.093,0,0,1,8.48,5.6h-32.75A6.091,6.091,0,0,1,1216.328,372.15Z" transform="translate(-966.47 -368.836)" fill="#ededed"/>
      <g id="Grupo_395" data-name="Grupo 395" transform="translate(0 21.609)">
        <g id="Grupo_394" data-name="Grupo 394">
          <g id="Grupo_92" data-name="Grupo 92" transform="translate(213.24)">
            <path id="Retângulo_92" data-name="Retângulo 92" d="M0,0H39.685a0,0,0,0,1,0,0V69.82a0,0,0,0,1,0,0h0A39.685,39.685,0,0,1,0,30.135V0A0,0,0,0,1,0,0Z" transform="translate(83.748 104.885) rotate(180)" fill="#d7d7d7"/>
            <g id="Grupo_77" data-name="Grupo 77" transform="translate(47.72 46.177)">
              <rect id="Retângulo_93" data-name="Retângulo 93" width="12.172" height="2.69" transform="translate(12.172 2.69) rotate(-180)" fill="#37778b"/>
            </g>
            <g id="Grupo_78" data-name="Grupo 78" transform="translate(47.72 52.949)">
              <rect id="Retângulo_94" data-name="Retângulo 94" width="12.172" height="2.69" transform="translate(12.172 2.69) rotate(-180)" fill="#37778b"/>
            </g>
            <g id="Grupo_79" data-name="Grupo 79" transform="translate(47.72 59.721)">
              <rect id="Retângulo_95" data-name="Retângulo 95" width="12.172" height="2.69" transform="translate(12.172 2.69) rotate(-180)" fill="#37778b"/>
            </g>
            <g id="Grupo_80" data-name="Grupo 80" transform="translate(47.72 66.494)">
              <rect id="Retângulo_96" data-name="Retângulo 96" width="12.172" height="2.69" transform="translate(12.172 2.69) rotate(-180)" fill="#37778b"/>
            </g>
            <g id="Grupo_81" data-name="Grupo 81" transform="translate(47.72 73.266)">
              <rect id="Retângulo_97" data-name="Retângulo 97" width="12.172" height="2.69" transform="translate(12.172 2.69) rotate(-180)" fill="#37778b"/>
            </g>
            <g id="Grupo_82" data-name="Grupo 82" transform="translate(47.72 80.038)">
              <rect id="Retângulo_98" data-name="Retângulo 98" width="12.172" height="2.69" transform="translate(12.172 2.69) rotate(-180)" fill="#37778b"/>
            </g>
            <g id="Grupo_83" data-name="Grupo 83" transform="translate(47.72 86.811)">
              <rect id="Retângulo_99" data-name="Retângulo 99" width="12.172" height="2.69" transform="translate(12.172 2.69) rotate(-180)" fill="#37778b"/>
            </g>
            <g id="Grupo_84" data-name="Grupo 84" transform="translate(47.72 93.583)">
              <rect id="Retângulo_100" data-name="Retângulo 100" width="12.172" height="2.69" transform="translate(12.172 2.69) rotate(-180)" fill="#37778b"/>
            </g>
            <path id="Retângulo_101" data-name="Retângulo 101" d="M0,0H44.063a0,0,0,0,1,0,0V66.789A22.032,22.032,0,0,1,22.032,88.821h0A22.032,22.032,0,0,1,0,66.789V0A0,0,0,0,1,0,0Z" transform="translate(44.063 104.885) rotate(-180)" fill="#c6e3e4"/>
            <path id="Retângulo_102" data-name="Retângulo 102" d="M0,0H24.957a0,0,0,0,1,0,0V3.585A12.479,12.479,0,0,1,12.479,16.064h0A12.479,12.479,0,0,1,0,3.585V0A0,0,0,0,1,0,0Z" transform="translate(34.51 16.064) rotate(-180)" fill="#d7d7d7"/>
            <g id="Grupo_85" data-name="Grupo 85" transform="translate(8.153 26.476)">
              <rect id="Retângulo_103" data-name="Retângulo 103" width="6.545" height="3.272" transform="translate(27.758 3.272) rotate(-180)" fill="#fff"/>
              <rect id="Retângulo_104" data-name="Retângulo 104" width="6.545" height="3.272" transform="translate(17.151 3.272) rotate(-180)" fill="#fff"/>
              <rect id="Retângulo_105" data-name="Retângulo 105" width="6.545" height="3.272" transform="translate(6.545 3.272) rotate(-180)" fill="#fff"/>
            </g>
            <g id="Grupo_86" data-name="Grupo 86" transform="translate(8.153 36.292)">
              <rect id="Retângulo_106" data-name="Retângulo 106" width="6.545" height="3.272" transform="translate(27.758 3.272) rotate(-180)" fill="#fff"/>
              <rect id="Retângulo_107" data-name="Retângulo 107" width="6.545" height="3.272" transform="translate(17.151 3.272) rotate(-180)" fill="#fff"/>
              <rect id="Retângulo_108" data-name="Retângulo 108" width="6.545" height="3.272" transform="translate(6.545 3.272) rotate(-180)" fill="#fff"/>
            </g>
            <g id="Grupo_87" data-name="Grupo 87" transform="translate(8.153 46.109)">
              <rect id="Retângulo_109" data-name="Retângulo 109" width="6.545" height="3.272" transform="translate(27.758 3.272) rotate(-180)" fill="#fff"/>
              <rect id="Retângulo_110" data-name="Retângulo 110" width="6.545" height="3.272" transform="translate(17.151 3.272) rotate(-180)" fill="#fff"/>
              <rect id="Retângulo_111" data-name="Retângulo 111" width="6.545" height="3.272" transform="translate(6.545 3.272) rotate(-180)" fill="#fff"/>
            </g>
            <g id="Grupo_88" data-name="Grupo 88" transform="translate(8.153 55.926)">
              <rect id="Retângulo_112" data-name="Retângulo 112" width="6.545" height="3.272" transform="translate(27.758 3.272) rotate(-180)" fill="#fff"/>
              <rect id="Retângulo_113" data-name="Retângulo 113" width="6.545" height="3.272" transform="translate(17.151 3.272) rotate(-180)" fill="#fff"/>
              <rect id="Retângulo_114" data-name="Retângulo 114" width="6.545" height="3.272" transform="translate(6.545 3.272) rotate(-180)" fill="#fff"/>
            </g>
            <g id="Grupo_89" data-name="Grupo 89" transform="translate(8.153 65.743)">
              <rect id="Retângulo_115" data-name="Retângulo 115" width="6.545" height="3.272" transform="translate(27.758 3.272) rotate(-180)" fill="#fff"/>
              <rect id="Retângulo_116" data-name="Retângulo 116" width="6.545" height="3.272" transform="translate(17.151 3.272) rotate(-180)" fill="#fff"/>
              <rect id="Retângulo_117" data-name="Retângulo 117" width="6.545" height="3.272" transform="translate(6.545 3.272) rotate(-180)" fill="#fff"/>
            </g>
            <g id="Grupo_90" data-name="Grupo 90" transform="translate(8.153 75.559)">
              <rect id="Retângulo_118" data-name="Retângulo 118" width="6.545" height="3.272" transform="translate(27.758 3.272) rotate(-180)" fill="#fff"/>
              <rect id="Retângulo_119" data-name="Retângulo 119" width="6.545" height="3.272" transform="translate(17.151 3.272) rotate(-180)" fill="#fff"/>
              <rect id="Retângulo_120" data-name="Retângulo 120" width="6.545" height="3.272" transform="translate(6.545 3.272) rotate(-180)" fill="#fff"/>
            </g>
            <g id="Grupo_91" data-name="Grupo 91" transform="translate(8.153 85.376)">
              <rect id="Retângulo_121" data-name="Retângulo 121" width="6.545" height="3.272" transform="translate(27.758 3.272) rotate(-180)" fill="#fff"/>
              <rect id="Retângulo_122" data-name="Retângulo 122" width="6.545" height="3.272" transform="translate(17.151 3.272) rotate(-180)" fill="#fff"/>
              <rect id="Retângulo_123" data-name="Retângulo 123" width="6.545" height="3.272" transform="translate(6.545 3.272) rotate(-180)" fill="#fff"/>
            </g>
          </g>
          <g id="Grupo_384" data-name="Grupo 384" transform="translate(107.938 73.057)">
            <ellipse id="Elipse_18" data-name="Elipse 18" cx="7.53" cy="7.53" rx="7.53" ry="7.53" transform="translate(101.78 26.318)" fill="#142429"/>
            <path id="Caminho_68" data-name="Caminho 68" d="M735.953,494.739v-9.494a1.658,1.658,0,0,1,.828-1.436l2.661-1.541a1.658,1.658,0,0,0,.828-1.435v-5.455a1.658,1.658,0,0,1,1.535-1.654l9.759-.732a14.173,14.173,0,0,0,10.717-6.248l1.188-1.774a9.2,9.2,0,0,1,7.641-4.079h41.306a9.2,9.2,0,0,1,6.116,2.329L825.7,469.6a14.172,14.172,0,0,0,7.508,3.46l19.54,2.67a1.66,1.66,0,0,1,1.384,1.24l2.82,11.252a1.661,1.661,0,0,0,1.61,1.256h0a1.659,1.659,0,0,1,1.658,1.659v3.6Z" transform="translate(-735.953 -460.89)" fill="#0f50fb"/>
            <path id="Caminho_69" data-name="Caminho 69" d="M892.386,466.571l8.73,8.111a3.3,3.3,0,0,0,2.333.966h14.98a.766.766,0,0,0,.493-1.353l-9.489-8.259a3.3,3.3,0,0,0-2.094-.772H892.934A.766.766,0,0,0,892.386,466.571Z" transform="translate(-829.706 -463.514)" fill="#71a6b8"/>
            <path id="Caminho_70" data-name="Caminho 70" d="M1014.069,513.435l.665,2.693a1.543,1.543,0,0,1-1.5,1.912h-8.319a1.542,1.542,0,0,1-1.542-1.542h0a1.543,1.543,0,0,1,1.03-1.455l7.653-2.694A1.543,1.543,0,0,1,1014.069,513.435Z" transform="translate(-896.456 -491.722)" fill="#fff" stroke="#d1d3d4" stroke-miterlimit="10" stroke-width="1"/>
            <path id="Caminho_71" data-name="Caminho 71" d="M960.5,513.435l-.665,2.693a1.543,1.543,0,0,0,1.5,1.912h8.319a1.542,1.542,0,0,0,1.542-1.542h0a1.541,1.541,0,0,0-1.03-1.455l-7.654-2.694A1.542,1.542,0,0,0,960.5,513.435Z" transform="translate(-870.296 -491.722)" fill="#fff" stroke="#d1d3d4" stroke-miterlimit="10" stroke-width="1"/>
            <line id="Linha_35" data-name="Linha 35" x1="122.604" transform="translate(0 28.59)" fill="#fff" stroke="#d1d3d4" stroke-miterlimit="10" stroke-width="1"/>
            <ellipse id="Elipse_19" data-name="Elipse 19" cx="7.53" cy="7.53" rx="7.53" ry="7.53" transform="translate(11.113 26.318)" fill="#142429"/>
            <ellipse id="Elipse_20" data-name="Elipse 20" cx="7.53" cy="7.53" rx="7.53" ry="7.53" transform="translate(69.693 26.318)" fill="#142429"/>
            <ellipse id="Elipse_21" data-name="Elipse 21" cx="3.335" cy="3.335" rx="3.335" ry="3.335" transform="translate(15.308 30.513)" fill="#fff" stroke="#d1d3d4" stroke-miterlimit="10" stroke-width="2.735"/>
            <ellipse id="Elipse_22" data-name="Elipse 22" cx="3.335" cy="3.335" rx="3.335" ry="3.335" transform="translate(73.888 30.513)" fill="#fff" stroke="#d1d3d4" stroke-miterlimit="10" stroke-width="2.735"/>
            <path id="Caminho_72" data-name="Caminho 72" d="M795.446,475.647l7.1-8.33a5.845,5.845,0,0,1,4.448-2.055H825.7a8.688,8.688,0,0,1,6.105,2.507l7.98,7.878h-6.821l-4.5-3.385v3.385Z" transform="translate(-771.661 -463.514)" fill="#71a6b8"/>
            <line id="Linha_36" data-name="Linha 36" y2="32.1" transform="translate(45.955 1.748)" fill="#fff" stroke="#d1d3d4" stroke-miterlimit="10" stroke-width="1"/>
            <path id="Caminho_73" data-name="Caminho 73" d="M746.749,498.057l3.438,2.97a1.343,1.343,0,0,1-.878,2.359h-2.561Z" transform="translate(-742.433 -483.197)" fill="#fff" stroke="#d1d3d4" stroke-miterlimit="10" stroke-width="2.735"/>
          </g>
          <g id="Grupo_92-2" data-name="Grupo 92" transform="translate(211.901)">
            <path id="Retângulo_92-2" data-name="Retângulo 92" d="M0,0H39.685a0,0,0,0,1,0,0V69.82a0,0,0,0,1,0,0h0A39.685,39.685,0,0,1,0,30.135V0A0,0,0,0,1,0,0Z" transform="translate(83.748 104.885) rotate(180)" fill="#d7d7d7"/>
            <g id="Grupo_77-2" data-name="Grupo 77" transform="translate(47.72 46.177)">
              <rect id="Retângulo_93-2" data-name="Retângulo 93" width="12.172" height="2.69" transform="translate(12.172 2.69) rotate(-180)" fill="#37778b"/>
            </g>
            <g id="Grupo_78-2" data-name="Grupo 78" transform="translate(47.72 52.949)">
              <rect id="Retângulo_94-2" data-name="Retângulo 94" width="12.172" height="2.69" transform="translate(12.172 2.69) rotate(-180)" fill="#37778b"/>
            </g>
            <g id="Grupo_79-2" data-name="Grupo 79" transform="translate(47.72 59.721)">
              <rect id="Retângulo_95-2" data-name="Retângulo 95" width="12.172" height="2.69" transform="translate(12.172 2.69) rotate(-180)" fill="#37778b"/>
            </g>
            <g id="Grupo_80-2" data-name="Grupo 80" transform="translate(47.72 66.494)">
              <rect id="Retângulo_96-2" data-name="Retângulo 96" width="12.172" height="2.69" transform="translate(12.172 2.69) rotate(-180)" fill="#37778b"/>
            </g>
            <g id="Grupo_81-2" data-name="Grupo 81" transform="translate(47.72 73.266)">
              <rect id="Retângulo_97-2" data-name="Retângulo 97" width="12.172" height="2.69" transform="translate(12.172 2.69) rotate(-180)" fill="#37778b"/>
            </g>
            <g id="Grupo_82-2" data-name="Grupo 82" transform="translate(47.72 80.038)">
              <rect id="Retângulo_98-2" data-name="Retângulo 98" width="12.172" height="2.69" transform="translate(12.172 2.69) rotate(-180)" fill="#37778b"/>
            </g>
            <g id="Grupo_83-2" data-name="Grupo 83" transform="translate(47.72 86.811)">
              <rect id="Retângulo_99-2" data-name="Retângulo 99" width="12.172" height="2.69" transform="translate(12.172 2.69) rotate(-180)" fill="#37778b"/>
            </g>
            <g id="Grupo_84-2" data-name="Grupo 84" transform="translate(47.72 93.583)">
              <rect id="Retângulo_100-2" data-name="Retângulo 100" width="12.172" height="2.69" transform="translate(12.172 2.69) rotate(-180)" fill="#37778b"/>
            </g>
            <path id="Retângulo_101-2" data-name="Retângulo 101" d="M0,0H44.063a0,0,0,0,1,0,0V66.789A22.032,22.032,0,0,1,22.032,88.821h0A22.032,22.032,0,0,1,0,66.789V0A0,0,0,0,1,0,0Z" transform="translate(44.063 104.885) rotate(-180)" fill="#c6e3e4"/>
            <path id="Retângulo_102-2" data-name="Retângulo 102" d="M0,0H24.957a0,0,0,0,1,0,0V3.585A12.479,12.479,0,0,1,12.479,16.064h0A12.479,12.479,0,0,1,0,3.585V0A0,0,0,0,1,0,0Z" transform="translate(34.51 16.064) rotate(-180)" fill="#d7d7d7"/>
            <g id="Grupo_85-2" data-name="Grupo 85" transform="translate(8.153 26.476)">
              <rect id="Retângulo_103-2" data-name="Retângulo 103" width="6.545" height="3.272" transform="translate(27.758 3.272) rotate(-180)" fill="#fff"/>
              <rect id="Retângulo_104-2" data-name="Retângulo 104" width="6.545" height="3.272" transform="translate(17.151 3.272) rotate(-180)" fill="#fff"/>
              <rect id="Retângulo_105-2" data-name="Retângulo 105" width="6.545" height="3.272" transform="translate(6.545 3.272) rotate(-180)" fill="#fff"/>
            </g>
            <g id="Grupo_86-2" data-name="Grupo 86" transform="translate(8.153 36.292)">
              <rect id="Retângulo_106-2" data-name="Retângulo 106" width="6.545" height="3.272" transform="translate(27.758 3.272) rotate(-180)" fill="#fff"/>
              <rect id="Retângulo_107-2" data-name="Retângulo 107" width="6.545" height="3.272" transform="translate(17.151 3.272) rotate(-180)" fill="#fff"/>
              <rect id="Retângulo_108-2" data-name="Retângulo 108" width="6.545" height="3.272" transform="translate(6.545 3.272) rotate(-180)" fill="#fff"/>
            </g>
            <g id="Grupo_87-2" data-name="Grupo 87" transform="translate(8.153 46.109)">
              <rect id="Retângulo_109-2" data-name="Retângulo 109" width="6.545" height="3.272" transform="translate(27.758 3.272) rotate(-180)" fill="#fff"/>
              <rect id="Retângulo_110-2" data-name="Retângulo 110" width="6.545" height="3.272" transform="translate(17.151 3.272) rotate(-180)" fill="#fff"/>
              <rect id="Retângulo_111-2" data-name="Retângulo 111" width="6.545" height="3.272" transform="translate(6.545 3.272) rotate(-180)" fill="#fff"/>
            </g>
            <g id="Grupo_88-2" data-name="Grupo 88" transform="translate(8.153 55.926)">
              <rect id="Retângulo_112-2" data-name="Retângulo 112" width="6.545" height="3.272" transform="translate(27.758 3.272) rotate(-180)" fill="#fff"/>
              <rect id="Retângulo_113-2" data-name="Retângulo 113" width="6.545" height="3.272" transform="translate(17.151 3.272) rotate(-180)" fill="#fff"/>
              <rect id="Retângulo_114-2" data-name="Retângulo 114" width="6.545" height="3.272" transform="translate(6.545 3.272) rotate(-180)" fill="#fff"/>
            </g>
            <g id="Grupo_89-2" data-name="Grupo 89" transform="translate(8.153 65.743)">
              <rect id="Retângulo_115-2" data-name="Retângulo 115" width="6.545" height="3.272" transform="translate(27.758 3.272) rotate(-180)" fill="#fff"/>
              <rect id="Retângulo_116-2" data-name="Retângulo 116" width="6.545" height="3.272" transform="translate(17.151 3.272) rotate(-180)" fill="#fff"/>
              <rect id="Retângulo_117-2" data-name="Retângulo 117" width="6.545" height="3.272" transform="translate(6.545 3.272) rotate(-180)" fill="#fff"/>
            </g>
            <g id="Grupo_90-2" data-name="Grupo 90" transform="translate(8.153 75.559)">
              <rect id="Retângulo_118-2" data-name="Retângulo 118" width="6.545" height="3.272" transform="translate(27.758 3.272) rotate(-180)" fill="#fff"/>
              <rect id="Retângulo_119-2" data-name="Retângulo 119" width="6.545" height="3.272" transform="translate(17.151 3.272) rotate(-180)" fill="#fff"/>
              <rect id="Retângulo_120-2" data-name="Retângulo 120" width="6.545" height="3.272" transform="translate(6.545 3.272) rotate(-180)" fill="#fff"/>
            </g>
            <g id="Grupo_91-2" data-name="Grupo 91" transform="translate(8.153 85.376)">
              <rect id="Retângulo_121-2" data-name="Retângulo 121" width="6.545" height="3.272" transform="translate(27.758 3.272) rotate(-180)" fill="#fff"/>
              <rect id="Retângulo_122-2" data-name="Retângulo 122" width="6.545" height="3.272" transform="translate(17.151 3.272) rotate(-180)" fill="#fff"/>
              <rect id="Retângulo_123-2" data-name="Retângulo 123" width="6.545" height="3.272" transform="translate(6.545 3.272) rotate(-180)" fill="#fff"/>
            </g>
          </g>
          <g id="Grupo_383" data-name="Grupo 383" transform="translate(140.116 4.018)">
            <g id="Grupo_374" data-name="Grupo 374" transform="translate(0 0)" clip-path="url(#clip-path)">
              <g id="Grupo_373" data-name="Grupo 373" transform="translate(0 0)">
                <path id="Caminho_2047" data-name="Caminho 2047" d="M-199.827-585.5c-1.539-2.455-3.035-4.84-4.53-7.227q-8.079-12.9-16.163-25.8c-.9-1.433-1.956-2.755-2.792-4.228a27.79,27.79,0,0,1-3.439-9.99,28.432,28.432,0,0,1,3.271-18.222c4.3-7.678,10.636-12.232,18.734-13.811a25.388,25.388,0,0,1,19.72,4.06,27.433,27.433,0,0,1,12.107,19.3,28.541,28.541,0,0,1-4.713,20.863q-3.442,5.131-6.733,10.38-7.631,12.131-15.2,24.31c-.067.107-.146.2-.264.37" transform="translate(227.062 665.304)" fill="#d7d7d7"/>
              </g>
            </g>
          </g>
          <g id="Grupo_386" data-name="Grupo 386" transform="translate(28.237 6.859)">
            <path id="Caminho_67" data-name="Caminho 67" d="M1116.663,325.786h0a15.105,15.105,0,0,1,15.075,14.144l3.444,54.018a15.106,15.106,0,0,1-15.075,16.067h-6.887a15.106,15.106,0,0,1-15.075-16.067l3.445-54.018A15.1,15.1,0,0,1,1116.663,325.786Z" transform="translate(-1098.113 -325.786)" fill="#71a6b8"/>
            <line id="Linha_30" data-name="Linha 30" y1="79.993" transform="translate(18.55 16.017)" fill="#fff" stroke="#d1d3d4" stroke-miterlimit="10" stroke-width="1"/>
            <line id="Linha_31" data-name="Linha 31" x1="8.675" y1="8.675" transform="translate(9.875 18.603)" fill="#fff" stroke="#d1d3d4" stroke-miterlimit="10" stroke-width="1"/>
            <line id="Linha_32" data-name="Linha 32" y1="9.597" x2="9.597" transform="translate(18.55 35.155)" fill="#fff" stroke="#d1d3d4" stroke-miterlimit="10" stroke-width="1"/>
            <line id="Linha_33" data-name="Linha 33" x1="12.343" y1="12.343" transform="translate(6.207 46.583)" fill="#fff" stroke="#d1d3d4" stroke-miterlimit="10" stroke-width="1"/>
            <line id="Linha_34" data-name="Linha 34" y1="10.683" x2="10.683" transform="translate(18.55 64.164)" fill="#fff" stroke="#d1d3d4" stroke-miterlimit="10" stroke-width="1"/>
          </g>
          <g id="Grupo_388" data-name="Grupo 388" transform="translate(57.471 42.971)">
            <path id="Caminho_2049" data-name="Caminho 2049" d="M94.8,0H53.272L34.18,26.1H75.7Z" transform="translate(-34.18)" fill="#37778b"/>
            <path id="Caminho_2050" data-name="Caminho 2050" d="M0,0H41.529L60.621,26.1H19.1Z" transform="translate(19.205)" fill="#71a6b8"/>
            <path id="Caminho_2051" data-name="Caminho 2051" d="M4.38,27.756,20.668,5.01,37.7,28.3H76.764V61.6H4.38Z" transform="translate(0.6 -2.194)" fill="#d7d7d7"/>
            <line id="Linha_57" data-name="Linha 57" y2="33.3" transform="translate(38.303 26.101)" fill="#fff" stroke="#f1f1f2" stroke-miterlimit="10" stroke-width="1.55"/>
            <rect id="Retângulo_382" data-name="Retângulo 382" width="10.156" height="32.03" transform="translate(22.942 27.377)" fill="#0f50fb"/>
            <rect id="Retângulo_383" data-name="Retângulo 383" width="10.915" height="12.691" transform="translate(8.863 27.124)" fill="#0f50fb"/>
          </g>
          <g id="Grupo_389" data-name="Grupo 389" transform="translate(106.618 73.063)">
            <ellipse id="Elipse_18-2" data-name="Elipse 18" cx="7.528" cy="7.528" rx="7.528" ry="7.528" transform="translate(101.748 26.31)" fill="#142429"/>
            <path id="Caminho_68-2" data-name="Caminho 68" d="M735.953,494.728v-9.491a1.658,1.658,0,0,1,.827-1.435l2.66-1.54a1.658,1.658,0,0,0,.827-1.435v-5.454a1.658,1.658,0,0,1,1.534-1.654l9.756-.732a14.168,14.168,0,0,0,10.714-6.246l1.187-1.774a9.194,9.194,0,0,1,7.638-4.078h41.293a9.192,9.192,0,0,1,6.114,2.328l7.161,6.38a14.166,14.166,0,0,0,7.506,3.459l19.534,2.669a1.66,1.66,0,0,1,1.384,1.24l2.819,11.249a1.66,1.66,0,0,0,1.609,1.256h0a1.658,1.658,0,0,1,1.658,1.658v3.6Z" transform="translate(-735.953 -460.89)" fill="#0f50fb"/>
            <path id="Caminho_69-2" data-name="Caminho 69" d="M892.386,466.57l8.728,8.108a3.3,3.3,0,0,0,2.333.966h14.976a.766.766,0,0,0,.493-1.352l-9.486-8.257a3.3,3.3,0,0,0-2.094-.772h-14.4A.766.766,0,0,0,892.386,466.57Z" transform="translate(-829.726 -463.515)" fill="#71a6b8"/>
            <path id="Caminho_70-2" data-name="Caminho 70" d="M1014.065,513.435l.665,2.692a1.543,1.543,0,0,1-1.5,1.911h-8.316a1.542,1.542,0,0,1-1.541-1.542h0a1.542,1.542,0,0,1,1.03-1.455l7.651-2.693A1.542,1.542,0,0,1,1014.065,513.435Z" transform="translate(-896.49 -491.729)" fill="#fff" stroke="#d1d3d4" stroke-miterlimit="10" stroke-width="1"/>
            <path id="Caminho_71-2" data-name="Caminho 71" d="M960.5,513.435l-.665,2.692a1.543,1.543,0,0,0,1.5,1.911h8.317a1.542,1.542,0,0,0,1.541-1.542h0a1.541,1.541,0,0,0-1.03-1.455l-7.652-2.693A1.541,1.541,0,0,0,960.5,513.435Z" transform="translate(-870.324 -491.729)" fill="#fff" stroke="#d1d3d4" stroke-miterlimit="10" stroke-width="1"/>
            <line id="Linha_35-2" data-name="Linha 35" x1="122.565" transform="translate(0 28.581)" fill="#fff" stroke="#d1d3d4" stroke-miterlimit="10" stroke-width="1"/>
            <ellipse id="Elipse_19-2" data-name="Elipse 19" cx="7.528" cy="7.528" rx="7.528" ry="7.528" transform="translate(11.109 26.31)" fill="#142429"/>
            <ellipse id="Elipse_20-2" data-name="Elipse 20" cx="7.528" cy="7.528" rx="7.528" ry="7.528" transform="translate(69.671 26.31)" fill="#142429"/>
            <ellipse id="Elipse_21-2" data-name="Elipse 21" cx="3.334" cy="3.334" rx="3.334" ry="3.334" transform="translate(15.303 30.504)" fill="#fff" stroke="#d1d3d4" stroke-miterlimit="10" stroke-width="2.735"/>
            <ellipse id="Elipse_22-2" data-name="Elipse 22" cx="3.334" cy="3.334" rx="3.334" ry="3.334" transform="translate(73.865 30.504)" fill="#fff" stroke="#d1d3d4" stroke-miterlimit="10" stroke-width="2.735"/>
            <path id="Caminho_72-2" data-name="Caminho 72" d="M795.446,475.644l7.094-8.327a5.844,5.844,0,0,1,4.447-2.054h18.7a8.685,8.685,0,0,1,6.1,2.506l7.977,7.876h-6.819l-4.5-3.384v3.384Z" transform="translate(-771.668 -463.515)" fill="#71a6b8"/>
            <line id="Linha_36-2" data-name="Linha 36" y2="32.09" transform="translate(45.94 1.748)" fill="#fff" stroke="#d1d3d4" stroke-miterlimit="10" stroke-width="1"/>
            <path id="Caminho_73-2" data-name="Caminho 73" d="M746.749,498.057l3.437,2.969a1.342,1.342,0,0,1-.877,2.358h-2.56Z" transform="translate(-742.434 -483.202)" fill="#fff" stroke="#d1d3d4" stroke-miterlimit="10" stroke-width="2.735"/>
          </g>
          <path id="Caminho_76" data-name="Caminho 76" d="M1218.355,373.253a8.086,8.086,0,0,1,3.86.975,12.535,12.535,0,0,1,20.368-.326,8.121,8.121,0,0,1,11.3,7.469h-43.648A8.118,8.118,0,0,1,1218.355,373.253Z" transform="translate(-1210.236 -364.108)" fill="#ededed"/>
          <path id="Caminho_2053" data-name="Caminho 2053" d="M1218.355,373.253a8.086,8.086,0,0,1,3.86.975,12.535,12.535,0,0,1,20.368-.326,8.121,8.121,0,0,1,11.3,7.469h-43.648A8.118,8.118,0,0,1,1218.355,373.253Z" transform="translate(-914.234 -352.054)" fill="#ededed"/>
          <g id="Elipse_46" data-name="Elipse 46" transform="translate(153.514 17.752)" fill="#fff" stroke="#37778b" stroke-width="1">
            <circle cx="14" cy="14" r="14" stroke="none"/>
            <circle cx="14" cy="14" r="13.5" fill="none"/>
          </g>
        </g>
      </g>
    </g>
  </g>
</svg>
