<svg xmlns="http://www.w3.org/2000/svg" width="185.111" height="185.111" viewBox="0 0 185.111 185.111">
  <g id="Grupo_774" data-name="Grupo 774" transform="translate(0.157 0.157)">
    <g id="Grupo_773" data-name="Grupo 773" transform="translate(60.1 41.086)">
      <g id="Grupo_767" data-name="Grupo 767">
        <g id="Grupo_766" data-name="Grupo 766">
          <path id="Caminho_2218" data-name="Caminho 2218" d="M1067.811,1570.723h-46.192a9.058,9.058,0,0,1-9.049-9.046v-91.567a9.059,9.059,0,0,1,9.049-9.049h46.192a9.059,9.059,0,0,1,9.049,9.049v91.567A9.062,9.062,0,0,1,1067.811,1570.723Z" transform="translate(-1012.57 -1461.06)" fill="#e9e9e9"/>
        </g>
      </g>
      <g id="Grupo_768" data-name="Grupo 768" transform="translate(5.242 16)">
        <rect id="Retângulo_405" data-name="Retângulo 405" width="53.805" height="68.927" fill="#ff5749"/>
      </g>
      <g id="Grupo_769" data-name="Grupo 769" transform="translate(25.462 90.458)">
        <path id="Caminho_2219" data-name="Caminho 2219" d="M1105.368,1779.906a6.978,6.978,0,1,1,6.978-6.978A6.986,6.986,0,0,1,1105.368,1779.906Z" transform="translate(-1098.39 -1765.95)" fill="#fff"/>
      </g>
      <g id="Grupo_770" data-name="Grupo 770" transform="translate(27.206 92.199)">
        <path id="Caminho_2220" data-name="Caminho 2220" d="M1109.5,1771.82a5.234,5.234,0,1,0,5.236,5.234A5.239,5.239,0,0,0,1109.5,1771.82Z" transform="translate(-1104.27 -1771.82)" fill="#0f50fb"/>
      </g>
      <g id="Grupo_771" data-name="Grupo 771" transform="translate(19.208 5.824)">
        <path id="Caminho_2221" data-name="Caminho 2221" d="M1101.158,1485.924H1079.93a2.617,2.617,0,1,1,0-5.234h21.228a2.617,2.617,0,1,1,0,5.234Z" transform="translate(-1077.31 -1480.69)" fill="#fff"/>
      </g>
      <g id="Grupo_772" data-name="Grupo 772" transform="translate(20.955 7.569)">
        <path id="Caminho_2222" data-name="Caminho 2222" d="M1084.072,1486.57a.872.872,0,1,0,0,1.744H1105.3a.872.872,0,1,0,0-1.744Z" transform="translate(-1083.2 -1486.57)" fill="#0f50fb"/>
      </g>
      <path id="Caminho_2223" data-name="Caminho 2223" d="M1066.86,1587.88l-1.671,1.67v9.248l1.406,1.65,28.082,4.516v6.506h-26.144v-4.424h-3.344v6.1l1.671,1.67h29.491l1.67-1.67v-9.607l-1.406-1.65-28.082-4.515v-6.147h26.144v4.424h3.344v-6.1l-1.67-1.67Z" transform="translate(-1049.578 -1550.254)" fill="#fff"/>
    </g>
    <g id="Elipse_44_4_" transform="translate(8.402 8.402)">
      <circle id="Elipse_73" data-name="Elipse 73" cx="83.996" cy="83.996" r="83.996" transform="translate(0)" fill="none"/>
      <circle id="Elipse_74" data-name="Elipse 74" cx="83.156" cy="83.156" r="83.156" transform="translate(0.84 0.84)" fill="none" stroke="#d1d3d4" stroke-width="2"/>
    </g>
    <g id="Elipse_45_4_">
      <circle id="Elipse_75" data-name="Elipse 75" cx="92.398" cy="92.398" r="92.398" fill="none"/>
      <circle id="Elipse_76" data-name="Elipse 76" cx="91.555" cy="91.555" r="91.555" transform="translate(0.843 0.843)" fill="none" stroke="#d1d3d4" stroke-width="2"/>
    </g>
  </g>
</svg>
