<svg id="Grupo_973" data-name="Grupo 973" xmlns="http://www.w3.org/2000/svg" width="49.698" height="84.78" viewBox="0 0 49.698 84.78">
  <g id="Grupo_527" data-name="Grupo 527">
    <g id="Grupo_521" data-name="Grupo 521">
      <g id="Grupo_520" data-name="Grupo 520">
        <path id="Caminho_2117" data-name="Caminho 2117" d="M42.705,84.78H6.995A7,7,0,0,1,0,77.785V7A7,7,0,0,1,6.995,0H42.7A7,7,0,0,1,49.7,7V77.785A7,7,0,0,1,42.705,84.78Z" fill="#0f50fb"/>
      </g>
    </g>
    <g id="Grupo_522" data-name="Grupo 522" transform="translate(4.053 12.372)">
      <rect id="Retângulo_390" data-name="Retângulo 390" width="41.595" height="53.287" fill="#ff5749"/>
    </g>
    <g id="Grupo_523" data-name="Grupo 523" transform="translate(19.683 69.932)">
      <path id="Caminho_2118" data-name="Caminho 2118" d="M91.165,315.521a5.4,5.4,0,1,1,5.4-5.4A5.4,5.4,0,0,1,91.165,315.521Z" transform="translate(-85.77 -304.73)" fill="#fff"/>
    </g>
    <g id="Grupo_524" data-name="Grupo 524" transform="translate(21.033 71.281)">
      <path id="Caminho_2119" data-name="Caminho 2119" d="M95.7,310.61a4.046,4.046,0,1,0,4.048,4.046A4.049,4.049,0,0,0,95.7,310.61Z" transform="translate(-91.65 -310.61)" fill="#0f50fb"/>
    </g>
    <g id="Grupo_525" data-name="Grupo 525" transform="translate(14.85 4.503)">
      <path id="Caminho_2120" data-name="Caminho 2120" d="M83.145,23.668H66.734a2.024,2.024,0,1,1,0-4.048H83.145a2.024,2.024,0,0,1,0,4.048Z" transform="translate(-64.71 -19.62)" fill="#fff"/>
    </g>
    <g id="Grupo_526" data-name="Grupo 526" transform="translate(16.2 5.852)">
      <path id="Caminho_2121" data-name="Caminho 2121" d="M71.265,25.5a.675.675,0,1,0,0,1.349H87.675a.675.675,0,0,0,0-1.349Z" transform="translate(-70.59 -25.5)" fill="#0f50fb"/>
    </g>
  </g>
  <g id="Grupo_539" data-name="Grupo 539" transform="translate(15.197 21.588)">
    <g id="Grupo_528" data-name="Grupo 528" transform="translate(2.786)">
      <path id="Caminho_2122" data-name="Caminho 2122" d="M92.243,108.4h-2v-6.254c0-.028.078-3.089-1.62-4.842a4.916,4.916,0,0,0-6.529.007c-1.751,1.783-1.742,4.971-1.742,5V108.4h-2v-6.068c0-.145-.046-4.016,2.313-6.419a6.9,6.9,0,0,1,9.4.014c2.224,2.306,2.182,5.93,2.173,6.272v6.2Z" transform="translate(-78.358 -94.07)" fill="#fff"/>
    </g>
    <g id="Grupo_529" data-name="Grupo 529" transform="translate(0 9.489)">
      <path id="Caminho_2123" data-name="Caminho 2123" d="M66.22,140.085l9.772-4.665,9.528,4.665s.59,9.462-9.65,19.7C75.87,159.789,66.748,151.418,66.22,140.085Z" transform="translate(-66.22 -135.42)" fill="#0f50fb"/>
    </g>
    <g id="Grupo_530" data-name="Grupo 530" transform="translate(9.772 9.489)">
      <path id="Caminho_2124" data-name="Caminho 2124" d="M108.8,135.42" transform="translate(-108.8 -135.42)" fill="#0f50fb"/>
    </g>
    <g id="Grupo_531" data-name="Grupo 531" transform="translate(9.648 9.487)">
      <path id="Caminho_2125" data-name="Caminho 2125" d="M117.908,140.078l-9.482-4.668-.165,24.367C118.5,149.537,117.908,140.078,117.908,140.078Z" transform="translate(-108.26 -135.41)" fill="#0542cc"/>
    </g>
    <g id="Grupo_538" data-name="Grupo 538" transform="translate(3.752 13.859)">
      <g id="Grupo_532" data-name="Grupo 532" transform="translate(0.555 0.305)">
        <path id="Caminho_2126" data-name="Caminho 2126" d="M90.353,155.79a5.529,5.529,0,0,0,0,11.052c.122,0,.241,0,.36-.014V155.8C90.594,155.795,90.472,155.79,90.353,155.79Z" transform="translate(-84.99 -155.79)" fill="#fff"/>
      </g>
      <g id="Grupo_533" data-name="Grupo 533" transform="translate(6.008 0.319)">
        <path id="Caminho_2127" data-name="Caminho 2127" d="M113.753,161.362a5.458,5.458,0,0,0-5-5.512v11.025A5.458,5.458,0,0,0,113.753,161.362Z" transform="translate(-108.75 -155.85)" fill="#e9e9ff"/>
      </g>
      <g id="Grupo_535" data-name="Grupo 535" transform="translate(3.8 2.747)">
        <g id="Grupo_534" data-name="Grupo 534">
          <path id="Caminho_2128" data-name="Caminho 2128" d="M99.13,172.6V166.43h4.112v1.028h-3.087V169h2.57v1.028h-2.57v1.542h3.087V172.6H99.13Z" transform="translate(-99.13 -166.43)" fill="#0f50fb"/>
        </g>
      </g>
      <g id="Grupo_537" data-name="Grupo 537">
        <g id="Grupo_536" data-name="Grupo 536">
          <path id="Caminho_2129" data-name="Caminho 2129" d="M88.47,166.26a5.9,5.9,0,1,1,5.9-5.9A5.906,5.906,0,0,1,88.47,166.26Zm0-10.488a4.59,4.59,0,1,0,4.59,4.59A4.594,4.594,0,0,0,88.47,155.773Z" transform="translate(-82.57 -154.46)" fill="#ff5749"/>
        </g>
      </g>
    </g>
  </g>
</svg>
