<svg id="Grupo_972" data-name="Grupo 972" xmlns="http://www.w3.org/2000/svg" width="49.442" height="84.336" viewBox="0 0 49.442 84.336">
  <g id="Grupo_911" data-name="Grupo 911">
    <g id="Grupo_910" data-name="Grupo 910">
      <path id="Caminho_2289" data-name="Caminho 2289" d="M42.482,84.336H6.96A6.966,6.966,0,0,1,0,77.379V6.96A6.966,6.966,0,0,1,6.96,0H42.482a6.968,6.968,0,0,1,6.96,6.96V77.379A6.97,6.97,0,0,1,42.482,84.336Z" fill="#0f50fb"/>
    </g>
  </g>
  <g id="Grupo_912" data-name="Grupo 912" transform="translate(4.031 12.307)">
    <rect id="Retângulo_421" data-name="Retângulo 421" width="41.379" height="53.007" fill="#ff5749"/>
  </g>
  <g id="Grupo_923" data-name="Grupo 923" transform="translate(10.169 23.357)">
    <g id="Grupo_913" data-name="Grupo 913">
      <circle id="Elipse_93" data-name="Elipse 93" cx="14.552" cy="14.552" r="14.552" fill="#0f50fb"/>
    </g>
    <g id="Grupo_922" data-name="Grupo 922" transform="translate(4.83 5.13)">
      <g id="Grupo_914" data-name="Grupo 914" transform="translate(12.159 0.5)">
        <path id="Caminho_2290" data-name="Caminho 2290" d="M119.4,128.38c.151.053.3.112.45.176a.758.758,0,0,0,.594-1.4c-.176-.075-.356-.144-.534-.208a.758.758,0,0,0-.509,1.428Z" transform="translate(-118.9 -126.909)" fill="#ff5749"/>
      </g>
      <g id="Grupo_915" data-name="Grupo 915" transform="translate(0.775 6.392)">
        <path id="Caminho_2291" data-name="Caminho 2291" d="M70.671,153.66a.757.757,0,1,0-1.462-.4c-.05.185-.094.372-.132.56a.758.758,0,0,0,1.485.306C70.591,153.971,70.63,153.813,70.671,153.66Z" transform="translate(-69.061 -152.704)" fill="#ff5749"/>
      </g>
      <g id="Grupo_916" data-name="Grupo 916" transform="translate(9.254)">
        <path id="Caminho_2292" data-name="Caminho 2292" d="M106.938,126.234c.16,0,.322,0,.482.016a.757.757,0,1,0,.091-1.512c-.19-.011-.384-.018-.573-.018a.757.757,0,1,0,0,1.514Z" transform="translate(-106.18 -124.72)" fill="#ff5749"/>
      </g>
      <g id="Grupo_917" data-name="Grupo 917" transform="translate(1.851 3.721)">
        <path id="Caminho_2293" data-name="Caminho 2293" d="M73.879,141.818a.758.758,0,0,0,1.3.786c.082-.137.171-.272.263-.4a.752.752,0,0,0,.082-.708.759.759,0,0,0-1.329-.158C74.084,141.492,73.979,141.654,73.879,141.818Z" transform="translate(-73.769 -141.01)" fill="#ff5749"/>
      </g>
      <g id="Grupo_918" data-name="Grupo 918" transform="translate(6.353 0.333)">
        <path id="Caminho_2294" data-name="Caminho 2294" d="M93.523,127.356a.756.756,0,0,0,.968.459c.151-.055.306-.1.459-.148a.76.76,0,0,0,.518-.939.563.563,0,0,0-.023-.066.759.759,0,0,0-.916-.452c-.183.053-.368.112-.548.176A.764.764,0,0,0,93.523,127.356Z" transform="translate(-93.479 -126.179)" fill="#ff5749"/>
      </g>
      <g id="Grupo_919" data-name="Grupo 919" transform="translate(3.787 1.623)">
        <path id="Caminho_2295" data-name="Caminho 2295" d="M82.415,133.382a.758.758,0,0,0,1.067.11c.123-.1.254-.2.384-.292a.757.757,0,0,0,.265-.891.746.746,0,0,0-.091-.167.757.757,0,0,0-1.058-.174c-.155.112-.308.228-.457.347A.758.758,0,0,0,82.415,133.382Z" transform="translate(-82.245 -131.826)" fill="#ff5749"/>
      </g>
      <g id="Grupo_920" data-name="Grupo 920" transform="translate(0 2.391)">
        <path id="Caminho_2296" data-name="Caminho 2296" d="M81.146,136.5a7.817,7.817,0,0,1,1.279,1.587c0,.007.007.014.011.021.082.137.164.279.24.42v0a7.611,7.611,0,0,1,.368.809,7.905,7.905,0,0,1-7.177,10.781h-.032a7.919,7.919,0,0,1-7.442-4.84l.966-.386c.27-.107.281-.308.025-.445l-2.27-1.227a.424.424,0,0,0-.626.251l-.8,2.455c-.089.274.057.413.327.3l.968-.388a9.354,9.354,0,0,0,4.913,5c.226.1.452.187.683.267,0,0,0,0,0,0l.027.009a9.333,9.333,0,0,0,6.236-.037.39.39,0,0,0,.048-.016c.069-.025.137-.05.2-.078.11-.043.222-.089.331-.137a.3.3,0,0,0,.039-.018,9.338,9.338,0,0,0,4.285-3.771.069.069,0,0,1,.011-.016c.1-.162.192-.331.279-.5.007-.011.009-.023.016-.034.087-.171.171-.345.249-.523a9.353,9.353,0,0,0,.6-5.683s0-.009,0-.014,0,0,0,0a9.474,9.474,0,0,0-2.716-4.893.756.756,0,0,0-1.071.025A.764.764,0,0,0,81.146,136.5Z" transform="translate(-65.666 -135.189)" fill="#fff"/>
      </g>
      <g id="Grupo_921" data-name="Grupo 921" transform="translate(8.9 3.426)">
        <path id="Caminho_2297" data-name="Caminho 2297" d="M105.242,139.72a.612.612,0,0,0-.612.612v6.108l5.585,2.887a.614.614,0,0,0,.827-.263.613.613,0,0,0-.263-.827l-4.922-2.544v-5.361A.616.616,0,0,0,105.242,139.72Z" transform="translate(-104.63 -139.72)" fill="#fff"/>
      </g>
    </g>
  </g>
  <g id="Grupo_924" data-name="Grupo 924" transform="translate(19.579 69.567)">
    <path id="Caminho_2298" data-name="Caminho 2298" d="M91.088,315.3a5.367,5.367,0,1,1,5.368-5.365A5.373,5.373,0,0,1,91.088,315.3Z" transform="translate(-85.72 -304.57)" fill="#fff"/>
  </g>
  <g id="Grupo_925" data-name="Grupo 925" transform="translate(20.922 70.908)">
    <path id="Caminho_2299" data-name="Caminho 2299" d="M95.625,310.44a4.025,4.025,0,1,0,4.027,4.025A4.028,4.028,0,0,0,95.625,310.44Z" transform="translate(-91.6 -310.44)" fill="#0f50fb"/>
  </g>
  <g id="Grupo_926" data-name="Grupo 926" transform="translate(14.771 4.481)">
    <path id="Caminho_2300" data-name="Caminho 2300" d="M83.009,23.645H66.685a2.012,2.012,0,1,1,0-4.025H83.011a2.012,2.012,0,1,1,0,4.025Z" transform="translate(-64.67 -19.62)" fill="#fff"/>
  </g>
  <g id="Grupo_927" data-name="Grupo 927" transform="translate(16.114 5.822)">
    <path id="Caminho_2301" data-name="Caminho 2301" d="M71.222,25.49a.672.672,0,0,0,0,1.343H87.548a.672.672,0,0,0,0-1.343Z" transform="translate(-70.55 -25.49)" fill="#0f50fb"/>
  </g>
</svg>
