<svg id="Grupo_969" data-name="Grupo 969" xmlns="http://www.w3.org/2000/svg" width="49.442" height="84.336" viewBox="0 0 49.442 84.336">
  <g id="Grupo_911" data-name="Grupo 911">
    <g id="Grupo_910" data-name="Grupo 910">
      <path id="Caminho_2289" data-name="Caminho 2289" d="M42.482,84.336H6.96A6.966,6.966,0,0,1,0,77.379V6.96A6.966,6.966,0,0,1,6.96,0H42.482a6.968,6.968,0,0,1,6.96,6.96V77.379A6.97,6.97,0,0,1,42.482,84.336Z" transform="translate(0 0)" fill="#0f50fb"/>
    </g>
  </g>
  <g id="Grupo_912" data-name="Grupo 912" transform="translate(4.031 12.307)">
    <rect id="Retângulo_421" data-name="Retângulo 421" width="41.379" height="53.007" fill="#ff5749"/>
  </g>
  <g id="Grupo_923" data-name="Grupo 923" transform="translate(10.169 23.357)">
    <g id="Grupo_913" data-name="Grupo 913">
      <circle id="Elipse_93" data-name="Elipse 93" cx="14.552" cy="14.552" r="14.552" fill="#0f50fb"/>
    </g>
    <g id="Grupo_838" data-name="Grupo 838" transform="translate(3.751 5.104)">
      <g id="Grupo_815" data-name="Grupo 815" transform="translate(0.753 5.674)">
        <g id="Grupo_814" data-name="Grupo 814" transform="translate(0)">
          <g id="Grupo_800" data-name="Grupo 800" transform="translate(1.461)">
            <path id="Caminho_2227" data-name="Caminho 2227" d="M42.872,109.56h-.094l-.047.267.047.267h.094Z" transform="translate(-42.73 -109.56)" fill="#ff5749"/>
          </g>
          <g id="Grupo_801" data-name="Grupo 801" transform="translate(1.382 0.775)">
            <path id="Caminho_2228" data-name="Caminho 2228" d="M42.2,126.383v-1.017a.866.866,0,0,0-.866-.866h0l-.126,2.009Z" transform="translate(-41.21 -124.5)" fill="#cc473b"/>
          </g>
          <g id="Grupo_802" data-name="Grupo 802" transform="translate(1.413)">
            <rect id="Retângulo_412" data-name="Retângulo 412" width="0.094" height="0.533" fill="#ff5749"/>
          </g>
          <g id="Grupo_803" data-name="Grupo 803" transform="translate(0.642 0.775)">
            <path id="Caminho_2229" data-name="Caminho 2229" d="M27.816,124.689V124.5h0a.866.866,0,0,0-.866.866v1.017l.866.126v-1.631a.488.488,0,0,1,.481.408.091.091,0,0,0,.089.079H28.4a.091.091,0,0,0,.089-.105A.677.677,0,0,0,27.816,124.689Z" transform="translate(-26.95 -124.5)" fill="#ff5749"/>
          </g>
          <g id="Grupo_804" data-name="Grupo 804" transform="translate(2.19 0.399)">
            <rect id="Retângulo_413" data-name="Retângulo 413" width="0.533" height="0.189" transform="translate(0 0.377) rotate(-45)" fill="#ff5749"/>
          </g>
          <g id="Grupo_807" data-name="Grupo 807" transform="translate(0.315 0.085)">
            <g id="Grupo_805" data-name="Grupo 805" transform="translate(0 0.314)">
              <rect id="Retângulo_414" data-name="Retângulo 414" width="0.189" height="0.533" transform="translate(0 0.134) rotate(-45)" fill="#ff5749"/>
            </g>
            <g id="Grupo_806" data-name="Grupo 806" transform="translate(0.496 0)">
              <rect id="Retângulo_415" data-name="Retângulo 415" width="0.189" height="0.533" transform="translate(0 0.072) rotate(-22.5)" fill="#ff5749"/>
            </g>
          </g>
          <g id="Grupo_810" data-name="Grupo 810" transform="translate(1.826 0.085)">
            <g id="Grupo_808" data-name="Grupo 808" transform="translate(0 0)">
              <rect id="Retângulo_416" data-name="Retângulo 416" width="0.533" height="0.189" transform="translate(0 0.493) rotate(-67.5)" fill="#ff5749"/>
            </g>
            <g id="Grupo_809" data-name="Grupo 809" transform="translate(0.625 0.812)">
              <rect id="Retângulo_417" data-name="Retângulo 417" width="0.533" height="0.189" transform="translate(0 0.204) rotate(-22.5)" fill="#ff5749"/>
            </g>
          </g>
          <g id="Grupo_811" data-name="Grupo 811" transform="translate(0 0.896)">
            <rect id="Retângulo_418" data-name="Retângulo 418" width="0.189" height="0.533" transform="translate(0 0.175) rotate(-67.5)" fill="#ff5749"/>
          </g>
          <g id="Grupo_812" data-name="Grupo 812" transform="translate(1.382 2.658)">
            <path id="Caminho_2230" data-name="Caminho 2230" d="M42.568,161.024a.234.234,0,0,0-.234-.234h-1l-.126.232.126.2h1.232v-.2Z" transform="translate(-41.21 -160.79)" fill="#ededed"/>
          </g>
          <g id="Grupo_813" data-name="Grupo 813" transform="translate(0.276 2.658)">
            <path id="Caminho_2231" data-name="Caminho 2231" d="M20.266,160.79h-.131a.234.234,0,0,0-.234.234v.2h1.232v-.434Z" transform="translate(-19.9 -160.79)" fill="#fff"/>
          </g>
        </g>
      </g>
      <g id="Grupo_819" data-name="Grupo 819" transform="translate(6.23 -0.01)">
        <g id="Grupo_816" data-name="Grupo 816" transform="translate(0 7.387)">
          <path id="Caminho_2232" data-name="Caminho 2232" d="M120.161,142.391h0Z" transform="translate(-120.16 -142.39)" fill="#0f50fb"/>
        </g>
        <g id="Grupo_817" data-name="Grupo 817" transform="translate(3.727)">
          <path id="Caminho_2233" data-name="Caminho 2233" d="M194.227,1.255s.587-.013.658-.025.076-.056.067-.091h0A1.612,1.612,0,0,0,193.507-.01,1.346,1.346,0,0,0,192,1.287a2.377,2.377,0,0,0,.187.94l2.529.879a1.314,1.314,0,0,0,.341-.737h0A1.543,1.543,0,0,0,195,2.034a.494.494,0,0,0-.04-.085.046.046,0,0,0-.079.011L194.864,2a.16.16,0,0,1-.038.054.213.213,0,0,1-.2.049,4.23,4.23,0,0,1-.457-.137.159.159,0,0,1-.074-.079.21.21,0,0,1-.017-.107c.006-.073.019-.254.019-.375A.138.138,0,0,1,194.227,1.255Z" transform="translate(-192 0.01)" fill="#fff"/>
        </g>
        <g id="Grupo_818" data-name="Grupo 818" transform="translate(0.703 5.557)">
          <path id="Caminho_2234" data-name="Caminho 2234" d="M139.476,109.013a.276.276,0,0,0-.272-.229h-1.9c-.363-.15-.717-.31-1.019-.46a.764.764,0,0,0-.257-.075,3.744,3.744,0,0,1-2.125-1.139,5.42,5.42,0,0,0-.005,2.829l5.352-.554Z" transform="translate(-133.703 -107.11)" fill="#fff"/>
        </g>
      </g>
      <g id="Grupo_836" data-name="Grupo 836" transform="translate(-0.004 4.184)">
        <g id="Grupo_835" data-name="Grupo 835" transform="translate(0)">
          <g id="Grupo_820" data-name="Grupo 820" transform="translate(13.222 1.363)">
            <path id="Caminho_2235" data-name="Caminho 2235" d="M258.021,107.82h-2.767a.376.376,0,0,1-.394-.355h0a.376.376,0,0,1,.394-.355h2.791" transform="translate(-254.86 -107.11)" fill="#ededed"/>
          </g>
          <g id="Grupo_834" data-name="Grupo 834">
            <g id="Grupo_823" data-name="Grupo 823" transform="translate(0.757 8.79)">
              <g id="Grupo_822" data-name="Grupo 822">
                <path id="Caminho_2236" data-name="Caminho 2236" d="M17.418,255.936a2.838,2.838,0,1,1,2.838-2.838A2.841,2.841,0,0,1,17.418,255.936Zm0-4.331a1.494,1.494,0,1,0,1.494,1.494A1.5,1.5,0,0,0,17.418,251.6Z" transform="translate(-14.58 -250.26)" fill="#fff"/>
              </g>
            </g>
            <g id="Grupo_826" data-name="Grupo 826" transform="translate(14.815 8.614)">
              <g id="Grupo_825" data-name="Grupo 825" transform="translate(0 0)">
                <path id="Caminho_2237" data-name="Caminho 2237" d="M288.491,252.731a2.931,2.931,0,1,1,2.931-2.931A2.934,2.934,0,0,1,288.491,252.731Zm0-4.473a1.542,1.542,0,1,0,1.542,1.542A1.544,1.544,0,0,0,288.491,248.258Z" transform="translate(-285.56 -246.87)" fill="#ededed"/>
              </g>
            </g>
            <g id="Grupo_827" data-name="Grupo 827" transform="translate(6.573 2.892)">
              <path id="Caminho_2238" data-name="Caminho 2238" d="M126.959,139.9c.682,1.736,5.128.45,7.724-.421.99-.332.541-1.485,1.2-2.138.192-.19-.062-.142-.087-.147C135.649,137.158,124.906,134.669,126.959,139.9Z" transform="translate(-126.698 -136.57)" fill="#fff"/>
            </g>
            <g id="Grupo_828" data-name="Grupo 828" transform="translate(3.034 8.074)">
              <path id="Caminho_2239" data-name="Caminho 2239" d="M62.337,237.12l-2.962,3.249a.564.564,0,0,1-.768.146h0a.564.564,0,0,1,.075-.778l2.987-3.277" transform="translate(-58.483 -236.46)" fill="#fff"/>
            </g>
            <g id="Grupo_829" data-name="Grupo 829" transform="translate(14.392 8.074)">
              <path id="Caminho_2240" data-name="Caminho 2240" d="M277.41,237.12l2.962,3.249a.564.564,0,0,0,.768.146h0a.564.564,0,0,0-.075-.778l-2.987-3.277" transform="translate(-277.41 -236.46)" fill="#ededed"/>
            </g>
            <g id="Grupo_830" data-name="Grupo 830" transform="translate(10.563 2.892)">
              <path id="Caminho_2241" data-name="Caminho 2241" d="M203.61,139.1c1.374-.252,2.854.77,3.99.389.99-.332.541-1.485,1.2-2.138.192-.19-.062-.142-.087-.147a26.737,26.737,0,0,0-5.1-.62" transform="translate(-203.61 -136.58)" fill="#ededed"/>
            </g>
            <g id="Grupo_831" data-name="Grupo 831">
              <path id="Caminho_2242" data-name="Caminho 2242" d="M17.818,85.106c.227.192,1.223-.058,1.646.046.583.143.81,2.857-.335,2.8-3.66-.18-4.567,2.871-5.463,3.2-1.373.5-5.543.156-5.913.02a1.265,1.265,0,0,1-.9-.814A3.2,3.2,0,0,0,2.2,88.846c-1.5.9-2.014-1.76-2.2-2.936a.456.456,0,0,1,.439-.535h5.88a.439.439,0,0,1,.356.185,2.957,2.957,0,0,0,2.246,1.368c1.422-.038,3.431-2.572,6.057-2.421s-3.009-5.453,1.746-3.1l1.228.619C19.29,82.582,16.517,84,17.818,85.106Z" transform="translate(0.004 -80.829)" fill="#ff5749"/>
            </g>
            <g id="Grupo_833" data-name="Grupo 833" transform="translate(10.563 0.001)">
              <g id="Grupo_832" data-name="Grupo 832">
                <path id="Caminho_2243" data-name="Caminho 2243" d="M203.61,86.247c1.207-.751,2.676-1.83,4.416-1.729,2.625.151-3.009-5.453,1.746-3.1l1.228.619c1.336.557-1.437,1.978-.136,3.081.227.192,1.223-.058,1.646.046.583.143.81,2.857-.335,2.8-3.66-.18-4.567,2.871-5.463,3.2a10.413,10.413,0,0,1-3.1.255" transform="translate(-203.61 -80.839)" fill="#cc473b"/>
              </g>
            </g>
          </g>
        </g>
      </g>
      <g id="Grupo_837" data-name="Grupo 837" transform="translate(7.501 2.615)">
        <path id="Caminho_2244" data-name="Caminho 2244" d="M150.736,53.619a.863.863,0,0,0-.217-.174h0a1.007,1.007,0,0,0-.137-.08,2.759,2.759,0,0,1-.443-.236,15.532,15.532,0,0,1-1.963-2.24,1.1,1.1,0,0,0-1.554.056c-.024.026-.607.654-1.2,1.363-.215.258-.4.486-.556.691a.062.062,0,0,0,0,.081,3.145,3.145,0,0,0,1.923,1.013h.008c.358-.448.817-.981,1.254-1.459a.062.062,0,0,1,.091,0,4.966,4.966,0,0,0,1.244.893c.351.191.727.352,1.071.509l0,0,.226.119a.547.547,0,0,0,.245.08.062.062,0,0,0,.049-.02A.437.437,0,0,0,150.736,53.619Z" transform="translate(-144.654 -50.594)" fill="#ff5749"/>
      </g>
    </g>
  </g>
  <g id="Grupo_924" data-name="Grupo 924" transform="translate(19.579 69.567)">
    <path id="Caminho_2298" data-name="Caminho 2298" d="M91.088,315.3a5.367,5.367,0,1,1,5.368-5.365A5.373,5.373,0,0,1,91.088,315.3Z" transform="translate(-85.72 -304.57)" fill="#fff"/>
  </g>
  <g id="Grupo_925" data-name="Grupo 925" transform="translate(20.922 70.908)">
    <path id="Caminho_2299" data-name="Caminho 2299" d="M95.625,310.44a4.025,4.025,0,1,0,4.027,4.025A4.028,4.028,0,0,0,95.625,310.44Z" transform="translate(-91.6 -310.44)" fill="#0f50fb"/>
  </g>
  <g id="Grupo_926" data-name="Grupo 926" transform="translate(14.771 4.481)">
    <path id="Caminho_2300" data-name="Caminho 2300" d="M83.009,23.645H66.685a2.012,2.012,0,1,1,0-4.025H83.011a2.012,2.012,0,1,1,0,4.025Z" transform="translate(-64.67 -19.62)" fill="#fff"/>
  </g>
  <g id="Grupo_927" data-name="Grupo 927" transform="translate(16.114 5.822)">
    <path id="Caminho_2301" data-name="Caminho 2301" d="M71.222,25.49a.672.672,0,0,0,0,1.343H87.548a.672.672,0,0,0,0-1.343Z" transform="translate(-70.55 -25.49)" fill="#0f50fb"/>
  </g>
</svg>
