<svg id="Grupo_653" data-name="Grupo 653" xmlns="http://www.w3.org/2000/svg" width="49.728" height="84.826" viewBox="0 0 49.728 84.826">
  <g id="Grupo_501" data-name="Grupo 501">
    <g id="Grupo_500" data-name="Grupo 500">
      <path id="Caminho_2105" data-name="Caminho 2105" d="M42.726,84.826H7a7.006,7.006,0,0,1-7-7V7A7.007,7.007,0,0,1,7,0H42.728a7.007,7.007,0,0,1,7,7V77.826A7.012,7.012,0,0,1,42.726,84.826Z" fill="#0f50fb"/>
    </g>
  </g>
  <g id="Grupo_502" data-name="Grupo 502" transform="translate(4.053 12.379)">
    <rect id="Retângulo_389" data-name="Retângulo 389" width="41.618" height="53.315" fill="#ff5749"/>
  </g>
  <g id="Grupo_503" data-name="Grupo 503" transform="translate(19.695 69.969)">
    <path id="Caminho_2106" data-name="Caminho 2106" d="M91.218,315.685a5.4,5.4,0,1,1,5.4-5.4A5.4,5.4,0,0,1,91.218,315.685Z" transform="translate(-85.82 -304.89)" fill="#fff"/>
  </g>
  <g id="Grupo_504" data-name="Grupo 504" transform="translate(21.044 71.318)">
    <path id="Caminho_2107" data-name="Caminho 2107" d="M95.748,310.77a4.048,4.048,0,1,0,4.05,4.048A4.052,4.052,0,0,0,95.748,310.77Z" transform="translate(-91.7 -310.77)" fill="#0f50fb"/>
  </g>
  <g id="Grupo_505" data-name="Grupo 505" transform="translate(14.857 4.507)">
    <path id="Caminho_2108" data-name="Caminho 2108" d="M83.184,23.688H66.766a2.024,2.024,0,1,1,0-4.048h16.42a2.024,2.024,0,1,1,0,4.048Z" transform="translate(-64.74 -19.64)" fill="#fff"/>
  </g>
  <g id="Grupo_506" data-name="Grupo 506" transform="translate(16.209 5.854)">
    <path id="Caminho_2109" data-name="Caminho 2109" d="M71.3,25.51a.675.675,0,1,0,0,1.349h16.42a.675.675,0,1,0,0-1.349Z" transform="translate(-70.63 -25.51)" fill="#0f50fb"/>
  </g>
  <g id="Grupo_652" data-name="Grupo 652" transform="translate(14 21.973)">
    <g id="Grupo_630" data-name="Grupo 630" transform="translate(10.996 21.439)">
      <path id="Caminho_2158" data-name="Caminho 2158" d="M118.77,231.561s6.167-.308,10.987,1.849c0,0,.75,10.805-10.987,10.805Z" transform="translate(-118.77 -231.545)" fill="#0053cf"/>
    </g>
    <g id="Grupo_631" data-name="Grupo 631" transform="translate(0 21.439)">
      <path id="Caminho_2159" data-name="Caminho 2159" d="M11,231.561S4.835,231.252.016,233.41c0,0-.75,10.805,10.987,10.805Z" transform="translate(-0.006 -231.545)" fill="#0f50fb"/>
    </g>
    <g id="Grupo_634" data-name="Grupo 634" transform="translate(7.948 17.328)">
      <g id="Grupo_632" data-name="Grupo 632" transform="translate(0 2.683)">
        <path id="Caminho_2160" data-name="Caminho 2160" d="M86.172,216.768l-.29,1.4a1.807,1.807,0,0,0,.54,1.693,3.85,3.85,0,0,0,2.776.811,3.6,3.6,0,0,0,1.7-.468,1.752,1.752,0,0,0,.894-1.825l-.364-2.25A16.8,16.8,0,0,0,86.172,216.768Z" transform="translate(-85.844 -216.126)" fill="#ffb9a3"/>
      </g>
      <g id="Grupo_633" data-name="Grupo 633" transform="translate(0.326)">
        <path id="Caminho_2161" data-name="Caminho 2161" d="M93.669,187.15l-3.66.235-.639,3.09a16.744,16.744,0,0,1,5.26-.635l-.426-2.629Z" transform="translate(-89.37 -187.15)" fill="#e29b8a"/>
      </g>
    </g>
    <g id="Grupo_635" data-name="Grupo 635" transform="translate(13.307 15.114)">
      <path id="Caminho_2162" data-name="Caminho 2162" d="M143.73,170.233v-1.141a3.583,3.583,0,0,0,2.871-1.138c1.4-1.64.962-4.506.957-4.535l1.127-.18c.022.139.52,3.419-1.216,5.455A4.668,4.668,0,0,1,143.73,170.233Z" transform="translate(-143.73 -163.24)" fill="#1200ff"/>
    </g>
    <g id="Grupo_636" data-name="Grupo 636" transform="translate(9.358 20.485)">
      <path id="Caminho_2163" data-name="Caminho 2163" d="M102.123,223.346h2.031a1.053,1.053,0,0,0,1.053-1.053h0a1.053,1.053,0,0,0-1.053-1.053h-2.031a1.053,1.053,0,0,0-1.053,1.053h0A1.053,1.053,0,0,0,102.123,223.346Z" transform="translate(-101.07 -221.24)" fill="#0f50fb"/>
    </g>
    <g id="Grupo_639" data-name="Grupo 639" transform="translate(6.808 26.465)">
      <g id="Grupo_637" data-name="Grupo 637">
        <path id="Caminho_2164" data-name="Caminho 2164" d="M76.372,290.619H74.6a1.074,1.074,0,0,1-1.073-1.073V288.9a1.074,1.074,0,0,1,1.073-1.073h1.768a.4.4,0,0,0,.4-.4V286.9a.4.4,0,0,0-.4-.4H74.6a.4.4,0,0,0-.4.4.335.335,0,0,1-.67,0A1.074,1.074,0,0,1,74.6,285.83h1.768a1.074,1.074,0,0,1,1.073,1.073v.527a1.074,1.074,0,0,1-1.073,1.073H74.6a.4.4,0,0,0-.4.4v.641a.4.4,0,0,0,.4.4h1.768a.4.4,0,0,0,.4-.4v-.112a.335.335,0,0,1,.67,0v.112A1.074,1.074,0,0,1,76.372,290.619Z" transform="translate(-73.53 -285.83)" fill="#fff"/>
      </g>
      <g id="Grupo_638" data-name="Grupo 638" transform="translate(4.45 0.001)">
        <path id="Caminho_2165" data-name="Caminho 2165" d="M124.645,290.628a.335.335,0,0,1-.335-.335v-1.781a1.008,1.008,0,0,1-.34.058H122.6a1.012,1.012,0,0,1-1.011-1.011v-1.383a.335.335,0,0,1,.67,0v1.383a.341.341,0,0,0,.34.34h1.368a.341.341,0,0,0,.34-.34v-1.383a.335.335,0,0,1,.67,0v4.117A.333.333,0,0,1,124.645,290.628Z" transform="translate(-121.59 -285.84)" fill="#fff"/>
      </g>
    </g>
    <g id="Grupo_644" data-name="Grupo 644" transform="translate(19.399 9.169)">
      <g id="Grupo_641" data-name="Grupo 641" transform="translate(0.469 0.469)" opacity="0.17">
        <g id="Grupo_640" data-name="Grupo 640">
          <path id="Caminho_2166" data-name="Caminho 2166" d="M214.59,104.1" transform="translate(-214.59 -104.1)"/>
        </g>
      </g>
      <g id="Grupo_643" data-name="Grupo 643">
        <g id="Grupo_642" data-name="Grupo 642">
          <path id="Caminho_2167" data-name="Caminho 2167" d="M209.52,99.03" transform="translate(-209.52 -99.03)" fill="#0f50fb"/>
        </g>
      </g>
    </g>
    <g id="Grupo_647" data-name="Grupo 647" transform="translate(3.831 4.408)">
      <g id="Grupo_645" data-name="Grupo 645">
        <circle id="Elipse_55" data-name="Elipse 55" cx="7.135" cy="7.135" r="7.135" fill="#ffb9a3"/>
      </g>
      <g id="Grupo_646" data-name="Grupo 646" transform="translate(4.924 2.666)">
        <path id="Caminho_2168" data-name="Caminho 2168" d="M94.56,87.655s8.893-.958,8.072-11.255c0,0,3.02,6.494-1.168,9.819A6.934,6.934,0,0,1,94.56,87.655Z" transform="translate(-94.56 -76.4)" fill="#f4a690"/>
      </g>
    </g>
    <g id="Grupo_648" data-name="Grupo 648" transform="translate(1.013)">
      <path id="Caminho_2169" data-name="Caminho 2169" d="M19.341,7.026c.4.7,2.708,4.449,6.482,4.417a.045.045,0,0,1,.039.021l1.981,3.488a1.228,1.228,0,0,0,2.019-.181,10.259,10.259,0,0,0,1.132-3.722,10.05,10.05,0,1,0-18.967,3.539,1.326,1.326,0,0,0,2.018.428,13.93,13.93,0,0,0,5.211-7.975A.046.046,0,0,1,19.341,7.026Z" transform="translate(-10.942 -0.001)" fill="#f25149"/>
    </g>
    <g id="Grupo_649" data-name="Grupo 649" transform="translate(3.72 1.55)">
      <path id="Caminho_2170" data-name="Caminho 2170" d="M54.6,27.311,53.47,27.13c.007-.047.732-4.779-1.534-7.437a5.61,5.61,0,0,0-4.5-1.812A5.613,5.613,0,0,0,42.911,19.7c-2.214,2.619-1.468,7.206-1.459,7.253l-1.125.191c-.035-.209-.839-5.16,1.713-8.18a6.7,6.7,0,0,1,5.4-2.223,6.692,6.692,0,0,1,5.37,2.217A9.136,9.136,0,0,1,54.7,24.322,14.626,14.626,0,0,1,54.6,27.311Z" transform="translate(-40.18 -16.74)" fill="#1200ff"/>
    </g>
    <g id="Grupo_650" data-name="Grupo 650" transform="translate(3.01 10.039)">
      <path id="Caminho_2171" data-name="Caminho 2171" d="M35.938,115.275a3.428,3.428,0,1,1,0-6.855C37.831,108.42,37.831,115.275,35.938,115.275Z" transform="translate(-32.51 -108.42)" fill="#0f50fb"/>
    </g>
    <g id="Grupo_651" data-name="Grupo 651" transform="translate(14.239 10.039)">
      <path id="Caminho_2172" data-name="Caminho 2172" d="M155.213,115.275a3.428,3.428,0,1,0,0-6.855C153.319,108.42,153.319,115.275,155.213,115.275Z" transform="translate(-153.793 -108.42)" fill="#0f50fb"/>
    </g>
  </g>
</svg>
