<svg xmlns="http://www.w3.org/2000/svg" width="138.484" height="15.858" viewBox="0 0 138.484 15.858">
  <g id="Grupo_956" data-name="Grupo 956" transform="translate(204.5 -5038.796)">
    <g id="Grupo_265" data-name="Grupo 265" transform="translate(60.5 5104.796)">
      <g id="Grupo_262" data-name="Grupo 262" transform="translate(-265 -66)">
        <path id="Caminho_43" data-name="Caminho 43" d="M374.007,69.28l-.984.984v5.444l.828.972,16.534,2.658V83.17H374.991v-2.6h-1.968v3.589l.984.984h17.362l.985-.984V78.5l-.828-.973L374.991,74.87V71.248h15.394v2.6h1.969V70.264l-.985-.984Zm23.83,0-.983.984v13.89l.983.984h18.347V83.17H398.821V78.4h12.091V76.426H398.821V71.248h17.362V69.28Zm23.831,0-.984.984v13.89l.984.984H439.03l.985-.984V77.209l-.985-.984H426.339v1.968h11.707V83.17H422.652V71.248h15.394v2.6h1.968V70.264l-.985-.984Zm23.831,0-.985.984v5.444l.829.972,16.534,2.658V83.17H446.483v-2.6h-1.969v3.589l.985.984h17.362l.984-.984V78.5l-.828-.973L446.483,74.87V71.248h15.393v2.6h1.969V70.264l-.984-.984Zm24.815,1.968h15.394v5.178H470.314Zm-.984-1.968-.985.984V85.138h1.969V78.4h15.394v6.743h1.969V70.264l-.985-.984Zm22.846,0v1.968h8.682v13.89h1.968V71.248h8.682V69.28Z" transform="translate(-373.023 -69.28)" fill="#fff"/>
      </g>
    </g>
  </g>
</svg>
