<svg xmlns="http://www.w3.org/2000/svg" width="117" height="117" viewBox="0 0 117 117">
  <g id="Grupo_396" data-name="Grupo 396" transform="translate(0.335 0.296)">
    <g id="Elipse_44" data-name="Elipse 44" transform="translate(5.665 5.704)" fill="none" stroke="#d1d3d4" stroke-width="2">
      <circle cx="52.5" cy="52.5" r="52.5" stroke="none"/>
      <circle cx="52.5" cy="52.5" r="51.5" fill="none"/>
    </g>
    <g id="Elipse_45" data-name="Elipse 45" transform="translate(-0.335 -0.296)" fill="none" stroke="#d1d3d4" stroke-width="2">
      <circle cx="58.5" cy="58.5" r="58.5" stroke="none"/>
      <circle cx="58.5" cy="58.5" r="57.5" fill="none"/>
    </g>
    <g id="Grupo_838" data-name="Grupo 838" transform="translate(22.696 26.351)">
      <g id="Grupo_815" data-name="Grupo 815" transform="translate(2.618 19.689)">
        <g id="Grupo_814" data-name="Grupo 814">
          <g id="Grupo_800" data-name="Grupo 800" transform="translate(5.062)">
            <path id="Caminho_2227" data-name="Caminho 2227" d="M43.221,109.56h-.327l-.164.924.164.924h.327Z" transform="translate(-42.73 -109.56)" fill="#ff5749"/>
          </g>
          <g id="Grupo_801" data-name="Grupo 801" transform="translate(4.788 2.686)">
            <path id="Caminho_2228" data-name="Caminho 2228" d="M44.647,131.024V127.5a3,3,0,0,0-3-3h0l-.437,6.961Z" transform="translate(-41.21 -124.5)" fill="#cc473b"/>
          </g>
          <g id="Grupo_802" data-name="Grupo 802" transform="translate(4.898)">
            <rect id="Retângulo_412" data-name="Retângulo 412" width="0.327" height="1.848" fill="#ff5749"/>
          </g>
          <g id="Grupo_803" data-name="Grupo 803" transform="translate(2.225 2.686)">
            <path id="Caminho_2229" data-name="Caminho 2229" d="M29.951,125.156V124.5h0a3,3,0,0,0-3,3v3.524l3,.437v-5.651a1.691,1.691,0,0,1,1.667,1.415.317.317,0,0,0,.309.273h.032a.314.314,0,0,0,.307-.365A2.347,2.347,0,0,0,29.951,125.156Z" transform="translate(-26.95 -124.5)" fill="#ff5749"/>
          </g>
          <g id="Grupo_804" data-name="Grupo 804" transform="translate(7.59 1.384)">
            <rect id="Retângulo_413" data-name="Retângulo 413" width="1.848" height="0.656" transform="translate(0 1.307) rotate(-45)" fill="#ff5749"/>
          </g>
          <g id="Grupo_807" data-name="Grupo 807" transform="translate(1.09 0.296)">
            <g id="Grupo_805" data-name="Grupo 805" transform="translate(0 1.089)">
              <rect id="Retângulo_414" data-name="Retângulo 414" width="0.656" height="1.848" transform="translate(0 0.464) rotate(-45)" fill="#ff5749"/>
            </g>
            <g id="Grupo_806" data-name="Grupo 806" transform="translate(1.72 0)">
              <rect id="Retângulo_415" data-name="Retângulo 415" width="0.656" height="1.848" transform="translate(0 0.251) rotate(-22.5)" fill="#ff5749"/>
            </g>
          </g>
          <g id="Grupo_810" data-name="Grupo 810" transform="translate(6.328 0.293)">
            <g id="Grupo_808" data-name="Grupo 808" transform="translate(0 0)">
              <rect id="Retângulo_416" data-name="Retângulo 416" width="1.848" height="0.656" transform="translate(0 1.708) rotate(-67.5)" fill="#ff5749"/>
            </g>
            <g id="Grupo_809" data-name="Grupo 809" transform="translate(2.165 2.813)">
              <rect id="Retângulo_417" data-name="Retângulo 417" width="1.848" height="0.656" transform="translate(0 0.707) rotate(-22.5)" fill="#ff5749"/>
            </g>
          </g>
          <g id="Grupo_811" data-name="Grupo 811" transform="translate(0 3.104)">
            <rect id="Retângulo_418" data-name="Retângulo 418" width="0.656" height="1.848" transform="translate(0 0.606) rotate(-67.5)" fill="#ff5749"/>
          </g>
          <g id="Grupo_812" data-name="Grupo 812" transform="translate(4.788 9.21)">
            <path id="Caminho_2230" data-name="Caminho 2230" d="M45.917,161.6a.812.812,0,0,0-.813-.813H41.647l-.437.8.437.7h4.27v-.69Z" transform="translate(-41.21 -160.79)" fill="#0542cc"/>
          </g>
          <g id="Grupo_813" data-name="Grupo 813" transform="translate(0.957 9.21)">
            <path id="Caminho_2231" data-name="Caminho 2231" d="M21.167,160.79h-.455a.812.812,0,0,0-.813.813v.69h4.27v-1.5Z" transform="translate(-19.9 -160.79)" fill="#0f50fb"/>
          </g>
        </g>
      </g>
      <g id="Grupo_819" data-name="Grupo 819" transform="translate(21.6 -0.01)">
        <g id="Grupo_816" data-name="Grupo 816" transform="translate(0 25.601)">
          <path id="Caminho_2232" data-name="Caminho 2232" d="M120.162,142.392l0,0h0Z" transform="translate(-120.16 -142.39)" fill="#0f50fb"/>
        </g>
        <g id="Grupo_817" data-name="Grupo 817" transform="translate(12.916)">
          <path id="Caminho_2233" data-name="Caminho 2233" d="M199.718,4.373s2.035-.045,2.281-.086c.227-.038.264-.192.232-.315h0S201.05-.01,197.221-.01,192,2.581,192,4.486a8.237,8.237,0,0,0,.647,3.258l8.763,3.047a4.554,4.554,0,0,0,1.181-2.553h0a5.344,5.344,0,0,0-.194-1.165,1.712,1.712,0,0,0-.14-.295.16.16,0,0,0-.275.04l-.056.142a.555.555,0,0,1-.133.189.739.739,0,0,1-.7.171,14.659,14.659,0,0,1-1.582-.475.55.55,0,0,1-.255-.275.727.727,0,0,1-.059-.37c.02-.253.067-.881.067-1.3A.477.477,0,0,1,199.718,4.373Z" transform="translate(-192 0.01)" fill="#0f50fb"/>
        </g>
        <g id="Grupo_818" data-name="Grupo 818" transform="translate(2.435 19.258)">
          <path id="Caminho_2234" data-name="Caminho 2234" d="M153.71,113.706a.958.958,0,0,0-.942-.795h-6.582c-1.257-.52-2.485-1.075-3.533-1.595a2.646,2.646,0,0,0-.89-.261,12.975,12.975,0,0,1-7.366-3.946c-1.339,2.014-.4,9.119-.018,9.8l18.546-1.92Z" transform="translate(-133.703 -107.11)" fill="#0f50fb"/>
        </g>
      </g>
      <g id="Grupo_836" data-name="Grupo 836" transform="translate(-0.004 14.523)">
        <g id="Grupo_835" data-name="Grupo 835" transform="translate(0)">
          <g id="Grupo_820" data-name="Grupo 820" transform="translate(45.82 4.725)">
            <path id="Caminho_2235" data-name="Caminho 2235" d="M265.814,109.569h-9.59a1.3,1.3,0,0,1-1.365-1.23h0a1.3,1.3,0,0,1,1.365-1.23H265.9" transform="translate(-254.86 -107.11)" fill="#0542cc"/>
          </g>
          <g id="Grupo_834" data-name="Grupo 834">
            <g id="Grupo_823" data-name="Grupo 823" transform="translate(2.622 30.461)">
              <g id="Grupo_821" data-name="Grupo 821" transform="translate(1.409 2.006)">
                <circle id="Elipse_81" data-name="Elipse 81" cx="8.425" cy="8.425" r="8.425" fill="#fff"/>
              </g>
              <g id="Grupo_822" data-name="Grupo 822">
                <path id="Caminho_2236" data-name="Caminho 2236" d="M24.414,269.928a9.834,9.834,0,1,1,9.834-9.834A9.846,9.846,0,0,1,24.414,269.928Zm0-15.01a5.176,5.176,0,1,0,5.176,5.176A5.182,5.182,0,0,0,24.414,254.918Z" transform="translate(-14.58 -250.26)" fill="#0f50fb"/>
              </g>
            </g>
            <g id="Grupo_826" data-name="Grupo 826" transform="translate(51.339 29.851)">
              <g id="Grupo_824" data-name="Grupo 824" transform="translate(2.405 2.405)">
                <circle id="Elipse_82" data-name="Elipse 82" cx="7.75" cy="7.75" r="7.75" fill="#fff"/>
              </g>
              <g id="Grupo_825" data-name="Grupo 825" transform="translate(0 0)">
                <path id="Caminho_2237" data-name="Caminho 2237" d="M295.716,267.182a10.156,10.156,0,1,1,10.156-10.156A10.167,10.167,0,0,1,295.716,267.182Zm0-15.5a5.345,5.345,0,1,0,5.345,5.345A5.352,5.352,0,0,0,295.716,251.681Z" transform="translate(-285.56 -246.87)" fill="#0542cc"/>
              </g>
            </g>
            <g id="Grupo_827" data-name="Grupo 827" transform="translate(22.779 10.021)">
              <path id="Caminho_2238" data-name="Caminho 2238" d="M127.6,148.1c2.362,6.017,17.772,1.559,26.768-1.46,3.43-1.151,1.873-5.145,4.158-7.409.665-.66-.214-.491-.3-.509C157.716,138.609,120.489,129.981,127.6,148.1Z" transform="translate(-126.698 -136.57)" fill="#0f50fb"/>
            </g>
            <g id="Grupo_828" data-name="Grupo 828" transform="translate(10.515 27.98)">
              <path id="Caminho_2239" data-name="Caminho 2239" d="M71.839,238.749,61.575,250.007a1.954,1.954,0,0,1-2.661.505h0a1.955,1.955,0,0,1,.259-2.7L69.525,236.46" transform="translate(-58.483 -236.46)" fill="#0f50fb"/>
            </g>
            <g id="Grupo_829" data-name="Grupo 829" transform="translate(49.874 27.98)">
              <path id="Caminho_2240" data-name="Caminho 2240" d="M277.41,238.749l10.264,11.258a1.954,1.954,0,0,0,2.661.505h0a1.955,1.955,0,0,0-.259-2.7L279.724,236.46" transform="translate(-277.41 -236.46)" fill="#0542cc"/>
            </g>
            <g id="Grupo_830" data-name="Grupo 830" transform="translate(36.606 10.023)">
              <path id="Caminho_2241" data-name="Caminho 2241" d="M203.61,145.3c4.761-.874,9.89,2.668,13.827,1.347,3.43-1.151,1.873-5.145,4.158-7.409.665-.66-.214-.491-.3-.509a92.656,92.656,0,0,0-17.682-2.148" transform="translate(-203.61 -136.58)" fill="#0542cc"/>
            </g>
            <g id="Grupo_831" data-name="Grupo 831">
              <path id="Caminho_2242" data-name="Caminho 2242" d="M61.756,95.652c.786.665,4.237-.2,5.7.158,2.019.5,2.806,9.9-1.16,9.706-12.682-.624-15.826,9.949-18.933,11.08-4.759,1.733-19.208.541-20.49.068a4.385,4.385,0,0,1-3.132-2.823,11.075,11.075,0,0,0-16.112-5.23c-5.187,3.125-6.979-6.1-7.617-10.174a1.58,1.58,0,0,1,1.521-1.854H21.916a1.521,1.521,0,0,1,1.233.64c1.041,1.449,3.9,4.843,7.783,4.741,4.928-.131,11.891-8.914,20.99-8.389s-10.429-18.9,6.051-10.749l4.255,2.147C66.858,86.9,57.249,91.828,61.756,95.652Z" transform="translate(0.004 -80.829)" fill="#ff5749"/>
            </g>
            <g id="Grupo_833" data-name="Grupo 833" transform="translate(36.606 0.002)">
              <g id="Grupo_832" data-name="Grupo 832">
                <path id="Caminho_2243" data-name="Caminho 2243" d="M203.61,99.58c4.184-2.6,9.275-6.341,15.3-5.992,9.1.525-10.429-18.9,6.051-10.749l4.255,2.147c4.629,1.929-4.98,6.855-.473,10.677.786.665,4.237-.2,5.7.158,2.019.5,2.806,9.9-1.16,9.706-12.682-.624-15.826,9.949-18.933,11.08-2.235.813-6.607.982-10.747.885" transform="translate(-203.61 -80.839)" fill="#cc473b"/>
              </g>
            </g>
          </g>
        </g>
      </g>
      <g id="Grupo_837" data-name="Grupo 837" transform="translate(26.003 9.088)">
        <path id="Caminho_2244" data-name="Caminho 2244" d="M165.731,61.076a2.992,2.992,0,0,0-.753-.6h0a3.491,3.491,0,0,0-.475-.279,9.565,9.565,0,0,1-1.534-.816c-1.925-1.113-6.361-7.351-6.8-7.763a3.81,3.81,0,0,0-5.384.194c-.085.092-2.105,2.265-4.158,4.723-.746.894-1.383,1.685-1.925,2.395a.216.216,0,0,0,.016.28c.676.721,3.357,3.342,6.665,3.509a.139.139,0,0,1,.027,0c1.24-1.552,2.832-3.4,4.345-5.057a.216.216,0,0,1,.315,0,17.211,17.211,0,0,0,4.311,3.094c1.215.662,2.519,1.219,3.711,1.764l.011.005.784.413a1.9,1.9,0,0,0,.849.277.215.215,0,0,0,.169-.068A1.513,1.513,0,0,0,165.731,61.076Z" transform="translate(-144.654 -50.594)" fill="#ff5749"/>
      </g>
    </g>
  </g>
</svg>
