<svg xmlns="http://www.w3.org/2000/svg" width="66" height="66" viewBox="0 0 66 66">
  <g id="Grupo_396" data-name="Grupo 396" transform="translate(-31 -291)">
    <g id="Elipse_44" data-name="Elipse 44" transform="translate(34 294)" fill="none" stroke="#d1d3d4" stroke-width="1">
      <circle cx="30" cy="30" r="30" stroke="none"/>
      <circle cx="30" cy="30" r="29.5" fill="none"/>
    </g>
    <g id="Elipse_45" data-name="Elipse 45" transform="translate(31 291)" fill="none" stroke="#d1d3d4" stroke-width="1">
      <circle cx="33" cy="33" r="33" stroke="none"/>
      <circle cx="33" cy="33" r="32.5" fill="none"/>
    </g>
    <g id="Grupo_838" data-name="Grupo 838" transform="translate(43.907 304.981)">
      <g id="Grupo_815" data-name="Grupo 815" transform="translate(1.456 10.96)">
        <g id="Grupo_814" data-name="Grupo 814" transform="translate(0)">
          <g id="Grupo_800" data-name="Grupo 800" transform="translate(2.819)">
            <path id="Caminho_2227" data-name="Caminho 2227" d="M43,109.56h-.182l-.091.515.091.515H43Z" transform="translate(-42.73 -109.56)" fill="#ff5749"/>
          </g>
          <g id="Grupo_801" data-name="Grupo 801" transform="translate(2.666 1.496)">
            <path id="Caminho_2228" data-name="Caminho 2228" d="M43.124,128.133v-1.962a1.671,1.671,0,0,0-1.671-1.671h0l-.243,3.877Z" transform="translate(-41.21 -124.5)" fill="#cc473b"/>
          </g>
          <g id="Grupo_802" data-name="Grupo 802" transform="translate(2.728)">
            <rect id="Retângulo_412" data-name="Retângulo 412" width="0.182" height="1.029" fill="#ff5749"/>
          </g>
          <g id="Grupo_803" data-name="Grupo 803" transform="translate(1.239 1.496)">
            <path id="Caminho_2229" data-name="Caminho 2229" d="M28.621,124.865V124.5h0a1.671,1.671,0,0,0-1.671,1.671v1.962l1.671.243V125.23a.942.942,0,0,1,.928.788.176.176,0,0,0,.172.152h.018a.175.175,0,0,0,.171-.2A1.307,1.307,0,0,0,28.621,124.865Z" transform="translate(-26.95 -124.5)" fill="#ff5749"/>
          </g>
          <g id="Grupo_804" data-name="Grupo 804" transform="translate(4.226 0.771)">
            <rect id="Retângulo_413" data-name="Retângulo 413" width="1.029" height="0.365" transform="translate(0 0.728) rotate(-45)" fill="#ff5749"/>
          </g>
          <g id="Grupo_807" data-name="Grupo 807" transform="translate(0.607 0.165)">
            <g id="Grupo_805" data-name="Grupo 805" transform="translate(0 0.606)">
              <rect id="Retângulo_414" data-name="Retângulo 414" width="0.365" height="1.029" transform="translate(0 0.258) rotate(-45)" fill="#ff5749"/>
            </g>
            <g id="Grupo_806" data-name="Grupo 806" transform="translate(0.958 0)">
              <rect id="Retângulo_415" data-name="Retângulo 415" width="0.365" height="1.029" transform="translate(0 0.14) rotate(-22.5)" fill="#ff5749"/>
            </g>
          </g>
          <g id="Grupo_810" data-name="Grupo 810" transform="translate(3.524 0.163)">
            <g id="Grupo_808" data-name="Grupo 808" transform="translate(0 0)">
              <rect id="Retângulo_416" data-name="Retângulo 416" width="1.029" height="0.365" transform="translate(0 0.951) rotate(-67.5)" fill="#ff5749"/>
            </g>
            <g id="Grupo_809" data-name="Grupo 809" transform="translate(1.205 1.566)">
              <rect id="Retângulo_417" data-name="Retângulo 417" width="1.029" height="0.365" transform="translate(0 0.394) rotate(-22.5)" fill="#ff5749"/>
            </g>
          </g>
          <g id="Grupo_811" data-name="Grupo 811" transform="translate(0 1.728)">
            <rect id="Retângulo_418" data-name="Retângulo 418" width="0.365" height="1.029" transform="translate(0 0.338) rotate(-67.5)" fill="#ff5749"/>
          </g>
          <g id="Grupo_812" data-name="Grupo 812" transform="translate(2.666 5.129)">
            <path id="Caminho_2230" data-name="Caminho 2230" d="M43.831,161.243a.452.452,0,0,0-.453-.453H41.453l-.243.448.243.389h2.378v-.384Z" transform="translate(-41.21 -160.79)" fill="#0542cc"/>
          </g>
          <g id="Grupo_813" data-name="Grupo 813" transform="translate(0.533 5.129)">
            <path id="Caminho_2231" data-name="Caminho 2231" d="M20.606,160.79h-.253a.452.452,0,0,0-.453.453v.384h2.378v-.837Z" transform="translate(-19.9 -160.79)" fill="#0f50fb"/>
          </g>
        </g>
      </g>
      <g id="Grupo_819" data-name="Grupo 819" transform="translate(12.027 -0.01)">
        <g id="Grupo_816" data-name="Grupo 816" transform="translate(0 14.257)">
          <path id="Caminho_2232" data-name="Caminho 2232" d="M120.161,142.391h0Z" transform="translate(-120.16 -142.39)" fill="#0f50fb"/>
        </g>
        <g id="Grupo_817" data-name="Grupo 817" transform="translate(7.192)">
          <path id="Caminho_2233" data-name="Caminho 2233" d="M196.3,2.431s1.133-.025,1.27-.048.147-.107.129-.175h0a3.11,3.11,0,0,0-2.79-2.218A2.6,2.6,0,0,0,192,2.494a4.587,4.587,0,0,0,.36,1.814l4.88,1.7a2.536,2.536,0,0,0,.658-1.422h0a2.975,2.975,0,0,0-.108-.649.953.953,0,0,0-.078-.164.089.089,0,0,0-.153.022l-.031.079a.309.309,0,0,1-.074.105.412.412,0,0,1-.392.1,8.162,8.162,0,0,1-.881-.264.307.307,0,0,1-.142-.153A.4.4,0,0,1,196,3.448c.011-.141.037-.491.037-.723A.266.266,0,0,1,196.3,2.431Z" transform="translate(-192 0.01)" fill="#0f50fb"/>
        </g>
        <g id="Grupo_818" data-name="Grupo 818" transform="translate(1.356 10.724)">
          <path id="Caminho_2234" data-name="Caminho 2234" d="M144.844,110.783a.533.533,0,0,0-.525-.443h-3.665c-.7-.289-1.384-.6-1.967-.888a1.474,1.474,0,0,0-.5-.145,7.226,7.226,0,0,1-4.1-2.2c-.746,1.121-.222,5.078-.01,5.459l10.328-1.069Z" transform="translate(-133.703 -107.11)" fill="#0f50fb"/>
        </g>
      </g>
      <g id="Grupo_836" data-name="Grupo 836" transform="translate(-0.004 8.083)">
        <g id="Grupo_835" data-name="Grupo 835" transform="translate(0)">
          <g id="Grupo_820" data-name="Grupo 820" transform="translate(25.516 2.631)">
            <path id="Caminho_2235" data-name="Caminho 2235" d="M260.96,108.48h-5.34a.725.725,0,0,1-.76-.685h0a.725.725,0,0,1,.76-.685h5.385" transform="translate(-254.86 -107.11)" fill="#0542cc"/>
          </g>
          <g id="Grupo_834" data-name="Grupo 834">
            <g id="Grupo_823" data-name="Grupo 823" transform="translate(1.46 16.963)">
              <g id="Grupo_821" data-name="Grupo 821" transform="translate(0.785 1.117)">
                <circle id="Elipse_81" data-name="Elipse 81" cx="4.691" cy="4.691" r="4.691" fill="#fff"/>
              </g>
              <g id="Grupo_822" data-name="Grupo 822">
                <path id="Caminho_2236" data-name="Caminho 2236" d="M20.056,261.213a5.476,5.476,0,1,1,5.476-5.476A5.483,5.483,0,0,1,20.056,261.213Zm0-8.359a2.882,2.882,0,1,0,2.882,2.882A2.886,2.886,0,0,0,20.056,252.854Z" transform="translate(-14.58 -250.26)" fill="#0f50fb"/>
              </g>
            </g>
            <g id="Grupo_826" data-name="Grupo 826" transform="translate(28.59 16.623)">
              <g id="Grupo_824" data-name="Grupo 824" transform="translate(1.34 1.34)">
                <circle id="Elipse_82" data-name="Elipse 82" cx="4.316" cy="4.316" r="4.316" fill="#fff"/>
              </g>
              <g id="Grupo_825" data-name="Grupo 825" transform="translate(0 0)">
                <path id="Caminho_2237" data-name="Caminho 2237" d="M291.216,258.181a5.656,5.656,0,1,1,5.656-5.656A5.662,5.662,0,0,1,291.216,258.181Zm0-8.632a2.976,2.976,0,1,0,2.977,2.976A2.98,2.98,0,0,0,291.216,249.549Z" transform="translate(-285.56 -246.87)" fill="#0542cc"/>
              </g>
            </g>
            <g id="Grupo_827" data-name="Grupo 827" transform="translate(12.685 5.581)">
              <path id="Caminho_2238" data-name="Caminho 2238" d="M127.2,142.988c1.316,3.351,9.9.868,14.906-.813,1.91-.641,1.043-2.865,2.316-4.126.37-.367-.119-.273-.168-.283C143.971,137.705,123.24,132.9,127.2,142.988Z" transform="translate(-126.698 -136.57)" fill="#0f50fb"/>
            </g>
            <g id="Grupo_828" data-name="Grupo 828" transform="translate(5.855 15.581)">
              <path id="Caminho_2239" data-name="Caminho 2239" d="M65.92,237.734,60.2,244a1.088,1.088,0,0,1-1.482.281h0a1.089,1.089,0,0,1,.144-1.5l5.765-6.323" transform="translate(-58.483 -236.46)" fill="#0f50fb"/>
            </g>
            <g id="Grupo_829" data-name="Grupo 829" transform="translate(27.774 15.581)">
              <path id="Caminho_2240" data-name="Caminho 2240" d="M277.41,237.734,283.126,244a1.088,1.088,0,0,0,1.482.281h0a1.089,1.089,0,0,0-.144-1.5L278.7,236.46" transform="translate(-277.41 -236.46)" fill="#0542cc"/>
            </g>
            <g id="Grupo_830" data-name="Grupo 830" transform="translate(20.385 5.582)">
              <path id="Caminho_2241" data-name="Caminho 2241" d="M203.61,141.436c2.651-.487,5.507,1.486,7.7.75,1.91-.641,1.043-2.865,2.316-4.126.37-.367-.119-.273-.168-.283a51.6,51.6,0,0,0-9.846-1.2" transform="translate(-203.61 -136.58)" fill="#0542cc"/>
            </g>
            <g id="Grupo_831" data-name="Grupo 831">
              <path id="Caminho_2242" data-name="Caminho 2242" d="M34.389,89.084c.438.37,2.36-.112,3.177.088,1.124.276,1.563,5.513-.646,5.405-7.062-.347-8.813,5.54-10.543,6.17-2.65.965-10.7.3-11.41.038a2.442,2.442,0,0,1-1.744-1.572A6.167,6.167,0,0,0,4.25,96.3c-2.888,1.74-3.887-3.4-4.242-5.666A.88.88,0,0,1,.855,89.6H12.2a.847.847,0,0,1,.687.356c.58.807,2.174,2.7,4.334,2.64,2.744-.073,6.622-4.964,11.689-4.671s-5.808-10.523,3.37-5.986l2.37,1.2C37.23,84.211,31.879,86.954,34.389,89.084Z" transform="translate(0.004 -80.829)" fill="#ff5749"/>
            </g>
            <g id="Grupo_833" data-name="Grupo 833" transform="translate(20.385 0.001)">
              <g id="Grupo_832" data-name="Grupo 832">
                <path id="Caminho_2243" data-name="Caminho 2243" d="M203.61,91.275c2.33-1.449,5.165-3.531,8.522-3.337,5.066.292-5.808-10.523,3.37-5.986l2.37,1.2c2.578,1.074-2.773,3.817-.263,5.946.438.37,2.36-.112,3.177.088,1.124.276,1.563,5.513-.646,5.405-7.062-.347-8.813,5.54-10.543,6.17a20.1,20.1,0,0,1-5.985.493" transform="translate(-203.61 -80.839)" fill="#cc473b"/>
              </g>
            </g>
          </g>
        </g>
      </g>
      <g id="Grupo_837" data-name="Grupo 837" transform="translate(14.479 5.056)">
        <path id="Caminho_2244" data-name="Caminho 2244" d="M156.391,56.431a1.666,1.666,0,0,0-.419-.336h0a1.943,1.943,0,0,0-.264-.155,5.328,5.328,0,0,1-.854-.455c-1.072-.62-3.542-4.094-3.788-4.323a2.122,2.122,0,0,0-3,.108c-.047.051-1.172,1.261-2.316,2.63-.415.5-.77.938-1.072,1.334a.12.12,0,0,0,.009.156,6.07,6.07,0,0,0,3.711,1.954l.015,0c.691-.864,1.577-1.893,2.42-2.816a.12.12,0,0,1,.175,0,9.584,9.584,0,0,0,2.4,1.723c.677.368,1.4.679,2.066.982l.006,0,.436.23a1.056,1.056,0,0,0,.473.154.12.12,0,0,0,.094-.038A.843.843,0,0,0,156.391,56.431Z" transform="translate(-144.654 -50.594)" fill="#ff5749"/>
      </g>
    </g>
  </g>
</svg>
